<?xml version="1.0" encoding="UTF-8"?>
<svg viewBox="0 0 1536 1536" version="1.1" xmlns="http://www.w3.org/2000/svg" xmlns:xlink="http://www.w3.org/1999/xlink">
    <g id="Page-1" stroke="none" stroke-width="1" fill="none" fill-rule="evenodd">
        <g id="check-circle-o" fill="#ffffff" fill-rule="nonzero">
            <path d="M1171,685 L749,1107 C736.333333,1119.66667 721.333333,1126 704,1126 C686.666667,1126 671.666667,1119.66667 659,1107 L365,813 C352.333333,800.333333 346,785.333333 346,768 C346,750.666667 352.333333,735.666667 365,723 L467,621 C479.666667,608.333333 494.666667,602 512,602 C529.333333,602 544.333333,608.333333 557,621 L704,768 L979,493 C991.666667,480.333333 1006.66667,474 1024,474 C1041.33333,474 1056.33333,480.333333 1069,493 L1171,595 C1183.66667,607.666667 1190,622.666667 1190,640 C1190,657.333333 1183.66667,672.333333 1171,685 Z M1312,768 C1312,669.333333 1287.66667,578.333333 1239,495 C1190.33333,411.666667 1124.33333,345.666667 1041,297 C957.666667,248.333333 866.666667,224 768,224 C669.333333,224 578.333333,248.333333 495,297 C411.666667,345.666667 345.666667,411.666667 297,495 C248.333333,578.333333 224,669.333333 224,768 C224,866.666667 248.333333,957.666667 297,1041 C345.666667,1124.33333 411.666667,1190.33333 495,1239 C578.333333,1287.66667 669.333333,1312 768,1312 C866.666667,1312 957.666667,1287.66667 1041,1239 C1124.33333,1190.33333 1190.33333,1124.33333 1239,1041 C1287.66667,957.666667 1312,866.666667 1312,768 Z M1536,768 C1536,907.333333 1501.66667,1035.83333 1433,1153.5 C1364.33333,1271.16667 1271.16667,1364.33333 1153.5,1433 C1035.83333,1501.66667 907.333333,1536 768,1536 C628.666667,1536 500.166667,1501.66667 382.5,1433 C264.833333,1364.33333 171.666667,1271.16667 103,1153.5 C34.3333333,1035.83333 0,907.333333 0,768 C0,628.666667 34.3333333,500.166667 103,382.5 C171.666667,264.833333 264.833333,171.666667 382.5,103 C500.166667,34.3333333 628.666667,0 768,0 C907.333333,0 1035.83333,34.3333333 1153.5,103 C1271.16667,171.666667 1364.33333,264.833333 1433,382.5 C1501.66667,500.166667 1536,628.666667 1536,768 Z" id="Shape"></path>
        </g>
    </g>
</svg>
