<svg xmlns="http://www.w3.org/2000/svg" viewBox="0 0 94 432">
  <g stroke="#7CBFBF" stroke-width="3" fill="none" fill-rule="evenodd">
    <path d="M88 2l3 2v15l-3 3H5c-1 0-2-1-2-3V4l2-2h83zM90 43l2 2v3L44 98h44c1 0 3 1 3 3v15l-3 2H4l-2-2v-2-2l50-49h0H5c-1 0-2-1-2-3V45l2-2h85zM88 140l3 2v30a44 44 0 01-87 0l-1-30 2-2h83zm-66 31c0 14 11 25 25 25s25-11 25-25v-12H22v12zM88 232l3 2v15l-3 2H5l-2-2v-15l2-2h83zM92 312c0 12-4 21-12 30h-3l-10-10v-3c4-5 6-11 6-17 0-14-12-24-26-24s-25 10-25 24c0 6 2 12 6 17v3l-11 10h-3a45 45 0 0133-75c25-1 45 20 45 45zM6 346l84 39 2 2v1l-2 2-84 39c-1 1-3 0-3-2v-14c0-2 1-3 3-4l10-5v-34l-10-4c-1-1-3-2-3-5v-13c0-2 2-3 3-2zm27 51l21-9h0l-21-10v19z"/>
  </g>
</svg>
