<svg xmlns="http://www.w3.org/2000/svg" viewBox="0 0 91 471">
  <g fill="none" fill-rule="evenodd">
    <g stroke="#2B2869" stroke-width="3">
      <path d="M87 20c1 0 2 1 2 3l1 15-3 2H56v36h31l2 2 1 15-3 3H4l-2-3V78l2-2h33V40H4l-2-2V23l2-3h83zM44 133l42-28c2 0 4 0 4 3v16l-2 2-25 17 25 18c1 0 2 0 2 2v16c0 2-2 3-4 2l-42-28H4c-1 0-2-1-2-3v-15l2-2h40zM87 191l3 2v29c0 15-11 27-24 27-9 0-16-8-19-14-3 6-9 16-21 16-14 0-24-12-24-27v-31l2-2h83zm-67 31c0 5 4 9 9 9s9-6 9-11v-10H20v12zm34-2c0 5 4 9 9 9s9-4 9-9v-10H54v10zM87 267c1 0 3 1 3 3v37c0 15-13 27-27 27-12 0-21-7-26-18L6 333c-2 1-4 0-4-2v-17l1-2 33-17v-8H4l-2-2v-15c0-2 1-3 2-3h83zm-35 38c0 5 5 10 10 10s10-5 10-10v-18H52v18zM87 351l3 2v15c0 2-2 3-3 3H4c-1 0-2-1-2-3v-15l2-2h83zM87 392l3 2v31c0 24-20 44-44 44S2 449 2 425v-31l2-2h83zm-66 32c0 14 11 24 25 24s25-10 25-24v-12H21v12z"/>
    </g>
    <g fill="#2B2869" fill-rule="nonzero">
      <path d="M6 17l1-3h1l4 2 1-2-2-3c-2-1-5-2-5-5s2-6 6-6l5 2 1 1-2 2-1 1-3-2-2 1 3 3c2 1 5 2 5 6 0 2-2 5-6 5l-6-2zM19 18l8-17h1l8 17v1h-3l-1-1-1-2h-7l-1 2-1 1h-3v-1zm11-5l-3-4-1 4h4zM40 5h-4V4l-1-3h13v4h-4v14h-4V5zM51 1h4v18h-4V1zM57 2V1h4l4 10h1l4-10h4v1l-8 17h-1L57 2zM73 18l8-17h1l8 17v1h-3l-1-1-1-2h-7l-1 2-1 1h-3v-1zm10-5l-2-4-2 4h4z"/>
    </g>
  </g>
</svg>
