<svg xmlns="http://www.w3.org/2000/svg" viewBox="0 0 94 410">
  <path d="M15 3l10 6c2 1 2 3 1 4 0 0-7 9-7 18 0 5 3 8 8 8s9-4 12-13C44 16 52 2 67 2c12 0 25 10 25 29 0 13-7 23-10 27l-4 1-9-7c-2-1-3-3-2-4s8-10 8-18c0-4-3-8-7-8s-8 4-12 14-11 25-28 25C15 61 2 50 2 31 2 15 9 6 11 3h4zM6 65l84 39 2 2v1l-2 2-84 39c-1 1-3 0-3-2v-13c0-3 1-4 3-5l10-4V90L6 85c-1-1-3-2-3-4V67c0-2 2-3 3-2zm27 51l21-9-21-10v19zm39 50v-18c0-2 1-3 2-3h14c1 0 2 1 2 3v55c1 2-1 3-2 3H74c-1 0-2-1-2-3v-18H5l-2-2v-15l2-3h67v1zm16 52l2 2v16c1 1-1 2-2 2H5l-2-2v-15c0-2 1-3 2-3h83zm-1 30c2-1 3 0 3 2v17l-1 2-46 21 46 21 1 2v17c0 2-1 3-3 2L3 293l-1-3v-1l1-2 84-39zM6 324l84 39 2 2v1l-2 2-84 40c-1 0-3-1-3-3v-13c0-3 1-4 3-5l10-4v-34l-10-5c-1 0-3-2-3-4v-14c0-2 2-3 3-2zm27 51l21-9-21-10v19z" stroke="#E83A5A" stroke-width="3" fill="none" fill-rule="evenodd"/>
</svg>
