<svg viewBox="0 0 389 114" version="1.1" xmlns="http://www.w3.org/2000/svg" xmlns:xlink="http://www.w3.org/1999/xlink">
  <g id="AFAblk" fill="#ffffff">
      <path d="M140.936,28.715 C146.009,28.715 149.771,28.896 154.901,29.255 C154.616,28.295 154.616,27.696 154.616,27.275 C154.616,26.555 154.73,25.836 154.901,24.996 C151.766,25.116 147.776,25.356 144.128,25.356 C141.335,25.356 135.351,25.116 133.356,24.996 C133.641,30.755 133.926,37.295 133.926,44.915 C133.926,54.454 133.869,56.074 133.413,66.154 C134.496,65.914 135.521,65.794 137.117,65.794 C138.713,65.794 139.91,65.854 141.221,66.154 C141.05,64.894 141.05,64.414 140.993,63.034 C140.936,61.174 140.936,60.334 140.936,54.214 L140.936,46.175 C147.035,46.175 147.719,46.175 150.854,46.295 L153.989,46.415 C153.818,45.635 153.704,45.035 153.704,44.375 C153.704,43.655 153.818,42.995 153.989,42.395 C151.652,42.515 149.144,42.695 144.869,42.695 L140.936,42.695 L140.936,28.715" id="Fill-1"></path>
      <path d="M154.915,53.604 C154.915,61.906 160.271,66.94 168.358,66.94 C176.606,66.94 181.801,61.906 181.801,53.604 C181.801,44.874 176.606,40.215 168.358,40.215 C160.271,40.215 154.915,45.356 154.915,53.604 L154.915,53.604 Z M161.61,53.55 C161.61,49.105 162.52,42.357 168.358,42.357 C174.196,42.357 175.106,48.998 175.106,53.55 C175.106,58.103 174.196,64.798 168.358,64.798 C162.52,64.798 161.61,58.103 161.61,53.55 L161.61,53.55 Z" id="Fill-2"></path>
      <path d="M186.879,57.514 C186.879,58.157 186.932,60.781 187.95,62.656 C189.45,65.441 192.342,66.887 195.448,66.887 C200.269,66.887 202.679,63.887 204.125,61.959 C204.125,64.262 204.125,64.316 203.91,66.297 C205.089,66.137 205.946,65.976 206.963,65.976 C207.927,65.976 208.838,66.19 210.338,66.297 C210.07,63.352 209.909,61.691 209.909,54.943 C209.909,50.123 210.123,45.356 210.445,40.59 C208.624,40.857 207.66,40.911 206.802,40.911 C205.785,40.911 204.66,40.75 203.696,40.59 C204.071,43.856 204.071,49.587 204.071,53.283 C204.071,55.318 203.857,58.478 203.16,59.87 C202.786,60.62 201.447,62.923 198.126,62.923 C195.984,62.923 194.002,61.638 193.413,59.442 C193.091,58.21 193.038,53.765 193.038,52.265 C193.038,49.855 193.199,43.053 193.681,40.59 C192.503,40.804 191.378,40.911 190.2,40.911 C189.075,40.911 188.004,40.804 186.772,40.59 C187.039,42.946 187.093,43.963 187.093,46.213 C187.093,49.962 186.879,53.765 186.879,57.514" id="Fill-3"></path>
      <path d="M239.845,49.373 C239.845,43.642 236.738,40.322 230.9,40.322 C226.776,40.322 224.795,42.089 222.599,45.035 C222.599,42.357 222.599,42.143 222.866,40.59 C222.01,40.75 221.367,40.911 219.921,40.911 C217.993,40.911 216.922,40.697 216.386,40.59 C216.761,44.553 216.814,45.195 216.814,51.997 C216.814,58.371 216.761,59.174 216.279,66.297 C217.403,66.137 218.582,65.976 219.653,65.976 C220.135,65.976 222.492,66.244 223.027,66.297 C222.759,62.656 222.652,59.067 222.652,54.193 C222.652,52.372 222.813,48.677 223.563,47.123 C224.42,45.356 226.294,44.017 228.329,44.017 C230.633,44.017 232.668,45.035 233.31,47.552 C233.685,48.998 233.685,53.39 233.685,56.175 C233.685,58.692 233.471,63.727 233.043,66.297 C234.06,66.19 235.346,65.976 236.524,65.976 C237.702,65.976 238.827,66.19 240.005,66.297 C239.791,65.066 239.63,62.388 239.63,59.71 C239.63,57.085 239.845,50.873 239.845,49.373" id="Fill-4"></path>
      <path d="M264.638,66.297 C265.496,66.19 266.406,65.976 267.745,65.976 C269.084,65.976 270.262,66.19 270.798,66.297 C270.316,63.084 270.208,46.641 270.208,45.784 C270.208,39.411 270.423,32.984 270.798,26.611 C269.887,26.825 268.87,26.932 267.745,26.932 C266.192,26.932 265.121,26.825 263.942,26.611 C264.478,31.056 264.585,36.948 264.585,43.856 C262.764,42.035 260.889,40.322 256.926,40.322 C250.339,40.322 244.929,45.035 244.929,53.979 C244.929,61.209 249.642,67.047 256.658,67.047 C260.836,67.047 263.514,64.476 264.799,62.602 L264.638,66.297 L264.638,66.297 Z M257.944,63.834 C252.427,63.834 251.624,57.032 251.624,52.908 C251.624,48.837 252.856,43.16 258.158,43.16 C263.299,43.16 264.585,48.302 264.585,53.39 C264.585,60.46 261.907,63.834 257.944,63.834 L257.944,63.834 Z" id="Fill-5"></path>
      <path d="M284.284,52.158 C279.303,53.497 275.661,54.461 275.661,60.406 C275.661,62.495 276.839,66.94 283.052,66.94 C285.837,66.94 288.569,65.494 290.229,63.298 C290.872,65.012 291.514,66.565 294.674,66.565 C296.174,66.565 297.834,65.922 299.227,65.387 C299.119,65.066 299.012,64.744 299.012,64.423 C299.012,64.101 299.119,63.78 299.227,63.459 C298.744,63.673 298.262,63.887 297.727,63.887 C295.906,63.887 295.852,62.602 295.852,57.353 C295.852,55.586 296.013,50.176 296.013,48.195 C296.013,42.785 292.05,40.161 286.265,40.161 C283.48,40.161 281.82,40.696 277.75,43.16 C277.803,43.642 277.803,44.124 277.803,44.606 C277.803,45.517 277.696,46.213 277.535,47.231 C277.803,47.177 278.124,47.123 278.392,47.123 C278.66,47.123 278.928,47.177 279.196,47.231 C279.517,45.945 280.91,43.428 284.98,43.428 C287.872,43.428 290.175,45.035 290.175,49.105 C290.175,49.48 290.122,49.855 289.961,50.176 C289.693,50.658 289.264,50.819 286.105,51.676 L284.284,52.158 L284.284,52.158 Z M290.014,58.585 C290.014,61.37 288.14,63.673 285.248,63.673 C283.105,63.673 281.713,61.906 281.713,59.067 C281.713,55.211 283.909,54.622 290.014,53.015 L290.014,58.585 L290.014,58.585 Z" id="Fill-6"></path>
      <path d="M310.475,31.163 C309.512,32.02 307.423,33.52 304.37,34.912 C304.477,37.376 304.477,39.518 304.477,41.018 L302.121,41.018 C301.424,41.018 300.675,40.857 300.3,40.804 C300.407,41.446 300.46,41.928 300.46,42.518 C300.46,43.053 300.353,43.428 300.3,43.696 C300.942,43.642 301.799,43.535 302.817,43.535 L304.424,43.535 C304.424,47.82 304.102,57.192 304.102,59.549 C304.102,61.691 304.531,64.155 306.352,65.601 C307.583,66.565 309.672,66.994 311.172,66.994 C312.939,66.994 315.671,66.244 317.224,65.441 C317.117,65.066 317.01,64.744 317.01,64.209 C317.01,63.78 317.17,63.191 317.224,62.923 C316.153,63.673 315.189,64.048 314.01,64.048 C310.422,64.048 310.154,61.745 310.154,53.818 C310.154,51.569 310.315,45.838 310.315,43.535 C313.261,43.535 313.85,43.535 316.153,43.749 C316.046,43.214 315.992,42.732 315.992,42.143 C315.992,41.607 316.046,41.286 316.153,40.804 L314.171,40.964 C313.207,41.018 312.886,41.018 310.475,41.018 C310.636,32.984 310.636,32.074 310.85,31.324 L310.475,31.163" id="Fill-7"></path>
      <path d="M320.796,66.297 C322.028,66.137 323.206,65.976 324.438,65.976 C325.617,65.976 326.527,66.137 327.545,66.297 C327.545,65.655 327.33,62.602 327.33,61.906 C327.277,60.031 327.17,54.514 327.17,52.158 C327.17,50.23 327.384,45.249 327.491,43 L327.598,40.59 C326.742,40.75 325.884,40.911 324.278,40.911 C322.725,40.911 321.76,40.75 320.689,40.59 C321.064,44.338 321.225,50.069 321.225,53.872 C321.225,55.854 321.171,57.782 321.064,60.513 L320.796,66.297 L320.796,66.297 Z M324.117,35.662 C326.045,35.662 327.866,34.002 327.866,31.966 C327.866,29.985 326.099,28.217 324.117,28.217 C322.135,28.217 320.421,29.985 320.421,31.966 C320.421,34.002 322.189,35.662 324.117,35.662 L324.117,35.662 Z" id="Fill-8"></path>
      <path d="M332.997,53.604 C332.997,61.906 338.353,66.94 346.441,66.94 C354.689,66.94 359.884,61.906 359.884,53.604 C359.884,44.874 354.689,40.215 346.441,40.215 C338.353,40.215 332.997,45.356 332.997,53.604 L332.997,53.604 Z M339.692,53.55 C339.692,49.105 340.603,42.357 346.441,42.357 C352.279,42.357 353.189,48.998 353.189,53.55 C353.189,58.103 352.279,64.798 346.441,64.798 C340.603,64.798 339.692,58.103 339.692,53.55 L339.692,53.55 Z" id="Fill-9"></path>
      <path d="M388.26,49.373 C388.26,43.642 385.153,40.322 379.315,40.322 C375.191,40.322 373.209,42.089 371.014,45.035 C371.014,42.357 371.014,42.143 371.281,40.59 C370.424,40.75 369.782,40.911 368.336,40.911 C366.408,40.911 365.336,40.697 364.801,40.59 C365.176,44.553 365.229,45.195 365.229,51.997 C365.229,58.371 365.176,59.174 364.694,66.297 C365.818,66.137 366.997,65.976 368.068,65.976 C368.55,65.976 370.906,66.244 371.442,66.297 C371.174,62.656 371.067,59.067 371.067,54.193 C371.067,52.372 371.228,48.677 371.978,47.123 C372.835,45.356 374.709,44.017 376.744,44.017 C379.047,44.017 381.083,45.035 381.725,47.552 C382.1,48.998 382.1,53.39 382.1,56.175 C382.1,58.692 381.886,63.727 381.458,66.297 C382.475,66.19 383.76,65.976 384.939,65.976 C386.117,65.976 387.242,66.19 388.42,66.297 C388.206,65.066 388.045,62.388 388.045,59.71 C388.045,57.085 388.26,50.873 388.26,49.373" id="Fill-10"></path>
      <path d="M172.344,75.64 C172.315,75.205 172.315,74.625 172.315,74.103 C172.315,73.668 172.402,73.059 172.547,72.654 C171.909,72.538 171.822,72.538 171.677,72.538 C168.778,72.538 167.386,75.089 167.038,75.698 C166.082,77.379 165.995,78.452 165.763,80.51 C163.936,80.481 164.951,80.51 163.559,80.394 C163.588,80.713 163.646,80.974 163.646,81.177 C163.646,81.438 163.617,81.699 163.559,81.96 C163.907,81.931 164.226,81.873 164.806,81.873 L165.734,81.873 C165.763,82.453 165.792,84.801 165.792,86.164 C165.792,87.555 165.734,89.005 165.705,91.266 C165.676,92.977 165.647,93.296 165.502,94.195 C165.995,94.136 166.749,94.02 167.386,94.02 C167.937,94.02 168.662,94.136 169.213,94.195 C168.981,91.701 168.923,84.163 168.923,83.467 L168.923,81.873 C171.097,81.873 171.445,81.873 171.938,81.96 C171.88,81.757 171.822,81.525 171.822,81.177 C171.822,80.858 171.88,80.626 171.938,80.394 L170.865,80.481 C170.344,80.51 170.169,80.51 168.865,80.51 C168.604,79.669 168.053,77.872 168.053,77.089 C168.053,75.292 169.445,75.234 169.996,75.234 C170.344,75.234 171.358,75.292 172.141,75.814 L172.344,75.64" id="Fill-11"></path>
      <path d="M172.665,87.323 C172.665,91.817 175.564,94.542 179.942,94.542 C184.406,94.542 187.219,91.817 187.219,87.323 C187.219,82.598 184.406,80.076 179.942,80.076 C175.564,80.076 172.665,82.859 172.665,87.323 L172.665,87.323 Z M176.289,87.294 C176.289,84.888 176.781,81.235 179.942,81.235 C183.102,81.235 183.595,84.83 183.595,87.294 C183.595,89.759 183.102,93.383 179.942,93.383 C176.781,93.383 176.289,89.759 176.289,87.294 L176.289,87.294 Z" id="Fill-12"></path>
      <path d="M189.973,94.195 C190.843,94.107 191.481,94.02 191.973,94.02 C192.582,94.02 193.307,94.166 193.655,94.195 C193.481,92.397 193.394,89.585 193.394,87.729 C193.394,85.729 193.539,85.294 193.742,84.859 C194.09,84.105 195.018,83.294 196.322,83.294 C196.467,83.294 197.54,83.294 198.033,83.7 L198.236,83.554 C198.149,83.207 198.091,82.772 198.091,82.308 C198.091,81.902 198.12,80.655 198.352,80.22 C198.12,80.162 197.888,80.133 197.598,80.133 C195.278,80.133 194.119,82.076 193.336,83.323 C193.336,81.902 193.336,81.757 193.51,80.278 C193.046,80.394 192.553,80.452 191.857,80.452 C191.104,80.452 190.611,80.394 189.944,80.278 C190.089,82.83 190.147,83.554 190.147,86.715 C190.147,87.845 190.147,90.078 190.089,91.353 L189.973,94.195" id="Fill-13"></path>
      <path d="M211.769,75.176 C211.247,75.64 210.117,76.451 208.464,77.205 C208.522,78.539 208.522,79.699 208.522,80.51 L207.246,80.51 C206.869,80.51 206.464,80.423 206.261,80.394 C206.319,80.742 206.348,81.003 206.348,81.322 C206.348,81.612 206.29,81.815 206.261,81.96 C206.609,81.931 207.073,81.873 207.623,81.873 L208.493,81.873 C208.493,84.192 208.319,89.266 208.319,90.541 C208.319,91.701 208.551,93.035 209.537,93.818 C210.204,94.339 211.334,94.571 212.146,94.571 C213.103,94.571 214.581,94.166 215.422,93.731 C215.364,93.528 215.306,93.354 215.306,93.064 C215.306,92.832 215.393,92.513 215.422,92.368 C214.842,92.774 214.32,92.977 213.683,92.977 C211.74,92.977 211.595,91.73 211.595,87.439 C211.595,86.222 211.682,83.119 211.682,81.873 C213.277,81.873 213.596,81.873 214.842,81.989 C214.784,81.699 214.755,81.438 214.755,81.119 C214.755,80.829 214.784,80.655 214.842,80.394 L213.77,80.481 C213.248,80.51 213.074,80.51 211.769,80.51 C211.856,76.162 211.856,75.669 211.972,75.263 L211.769,75.176" id="Fill-14"></path>
      <path d="M220.925,72.712 C220.374,72.828 219.911,72.885 219.186,72.885 C218.432,72.885 217.794,72.828 217.214,72.712 C217.301,74.248 217.417,76.017 217.417,77.176 L217.446,82.83 C217.446,88.976 217.446,90.281 217.214,94.195 C217.504,94.166 218.374,94.02 218.983,94.02 C219.592,94.02 220.229,94.107 220.809,94.195 C220.664,91.585 220.664,91.295 220.664,87.497 C220.664,85.497 220.78,84.83 221.012,84.105 C221.476,82.656 222.81,82.221 223.882,82.221 C225.071,82.221 226.057,82.83 226.376,84.018 C226.549,84.685 226.579,85.439 226.579,88.135 C226.579,90.135 226.433,92.571 226.26,94.195 C226.665,94.166 227.564,94.02 228.202,94.02 C228.84,94.02 229.42,94.078 229.999,94.195 C229.913,93.035 229.826,90.339 229.826,88.744 C229.826,87.845 229.883,86.28 229.883,85.613 C229.883,84.308 229.883,83.119 229.217,82.076 C228.289,80.626 226.694,80.133 225.187,80.133 C223.534,80.133 221.911,80.742 220.664,82.511 C220.664,78.945 220.664,76.886 220.867,73.639 L220.925,72.712" id="Fill-15"></path>
      <path d="M245.369,87.352 C245.456,85.149 245.021,83.641 244.528,82.714 C243.079,80.076 240.15,80.076 239.078,80.076 C235.657,80.076 232.352,82.279 232.352,87.091 C232.352,88.106 232.381,90.686 234.294,92.629 C235.889,94.252 238.469,94.542 239.542,94.542 C242.325,94.542 244.209,93.296 244.412,93.064 L244.673,91.817 C244.731,91.614 244.818,91.411 244.905,91.208 L244.586,91.005 C243.63,92.107 241.774,92.832 240.469,92.832 C235.86,92.832 235.86,88.425 235.86,87.352 L245.369,87.352 L245.369,87.352 Z M235.918,85.932 C235.976,84.83 236.15,81.235 239.136,81.235 C242.035,81.235 242.035,84.511 242.035,85.932 L235.918,85.932 L235.918,85.932 Z" id="Fill-16"></path>
      <path d="M178.145,31.648 C178.667,31.619 179.479,31.474 180.291,31.474 C181.102,31.474 182.117,31.619 182.552,31.648 C181.247,28.835 179.334,24.457 178.232,21.935 C177.189,19.5 175.449,15.441 174.057,11.469 C173.738,11.556 173.449,11.614 173.13,11.614 C172.782,11.614 172.492,11.556 172.173,11.469 C171.477,13.846 169.796,17.616 166.868,24.168 L163.504,31.648 C163.91,31.59 164.316,31.474 164.809,31.474 C165.273,31.474 165.824,31.59 166.201,31.648 C166.665,29.995 167.592,27.589 168.52,25.356 C169.68,25.298 170.839,25.24 171.999,25.24 C173.246,25.24 174.463,25.298 175.71,25.356 L176.928,28.429 L178.145,31.648 L178.145,31.648 Z M174.869,23.559 C173.97,23.617 173.101,23.675 172.202,23.675 C171.187,23.675 170.202,23.588 169.187,23.559 L172.144,16.427 L174.869,23.559 L174.869,23.559 Z" id="Fill-17"></path>
      <path d="M183.979,10.165 C184.181,12.426 184.327,14.716 184.327,20.109 C184.327,20.805 184.356,29.415 184.037,31.648 C185.051,31.532 185.544,31.474 186.037,31.474 C186.646,31.474 187.226,31.59 187.806,31.648 C187.458,28.371 187.545,21.413 187.545,20.834 C187.545,17.847 187.545,13.296 187.835,10.165 C187.255,10.252 186.936,10.339 185.979,10.339 C185.051,10.339 184.703,10.281 183.979,10.165" id="Fill-18"></path>
      <path d="M204.879,24.371 C204.879,19.529 201.661,17.5 198.791,17.5 C196.848,17.5 195.457,18.456 194.355,19.964 C194.413,14.021 194.413,13.383 194.587,10.165 C194.094,10.252 193.63,10.339 192.818,10.339 C192.007,10.339 191.456,10.281 190.876,10.165 C191.195,15.528 191.224,17.383 191.224,21.181 C191.224,27.009 191.108,28.719 190.934,31.648 L191.919,31.648 C192.76,30.662 192.876,30.546 193.746,29.966 C194.993,31.648 196.529,31.995 198.269,31.995 C202.501,31.995 204.879,28.284 204.879,24.371 L204.879,24.371 Z M197.747,30.662 C194.471,30.662 194.297,26.748 194.297,24.95 C194.297,22.602 194.79,19.268 197.805,19.268 C201.023,19.268 201.284,22.747 201.284,24.66 C201.284,27.096 200.733,30.662 197.747,30.662 L197.747,30.662 Z" id="Fill-19"></path>
      <path d="M220.274,24.806 C220.361,22.602 219.926,21.094 219.433,20.167 C217.983,17.528 215.055,17.528 213.983,17.528 C210.562,17.528 207.256,19.732 207.256,24.544 C207.256,25.559 207.285,28.14 209.199,30.082 C210.793,31.705 213.374,31.995 214.446,31.995 C217.23,31.995 219.114,30.749 219.317,30.517 L219.578,29.27 C219.636,29.067 219.723,28.864 219.81,28.661 L219.491,28.458 C218.534,29.56 216.679,30.285 215.374,30.285 C210.764,30.285 210.764,25.878 210.764,24.806 L220.274,24.806 L220.274,24.806 Z M210.822,23.385 C210.88,22.283 211.054,18.688 214.04,18.688 C216.94,18.688 216.94,21.964 216.94,23.385 L210.822,23.385 L210.822,23.385 Z" id="Fill-20"></path>
      <path d="M223.26,31.648 C224.129,31.56 224.767,31.474 225.26,31.474 C225.869,31.474 226.594,31.619 226.942,31.648 C226.767,29.85 226.68,27.038 226.68,25.182 C226.68,23.182 226.825,22.747 227.028,22.312 C227.376,21.558 228.304,20.747 229.609,20.747 C229.754,20.747 230.826,20.747 231.319,21.152 L231.522,21.007 C231.435,20.659 231.377,20.225 231.377,19.761 C231.377,19.355 231.406,18.108 231.638,17.674 C231.406,17.616 231.174,17.587 230.884,17.587 C228.565,17.587 227.405,19.529 226.623,20.775 C226.623,19.355 226.623,19.21 226.796,17.731 C226.333,17.847 225.84,17.905 225.144,17.905 C224.39,17.905 223.898,17.847 223.23,17.731 C223.375,20.283 223.433,21.007 223.433,24.168 C223.433,25.298 223.433,27.531 223.375,28.806 L223.26,31.648" id="Fill-21"></path>
      <path d="M238.246,12.629 C237.725,13.093 236.594,13.904 234.941,14.658 C234.999,15.992 234.999,17.152 234.999,17.963 L233.724,17.963 C233.347,17.963 232.941,17.876 232.738,17.847 C232.796,18.195 232.825,18.456 232.825,18.775 C232.825,19.065 232.767,19.268 232.738,19.413 C233.086,19.384 233.55,19.326 234.101,19.326 L234.97,19.326 C234.97,21.645 234.796,26.719 234.796,27.994 C234.796,29.154 235.028,30.488 236.014,31.271 C236.681,31.792 237.812,32.024 238.623,32.024 C239.58,32.024 241.059,31.619 241.899,31.184 C241.841,30.981 241.783,30.807 241.783,30.517 C241.783,30.285 241.87,29.966 241.899,29.821 C241.32,30.227 240.798,30.43 240.16,30.43 C238.217,30.43 238.073,29.183 238.073,24.893 C238.073,23.675 238.159,20.572 238.159,19.326 C239.754,19.326 240.073,19.326 241.32,19.442 C241.262,19.152 241.233,18.891 241.233,18.572 C241.233,18.282 241.262,18.108 241.32,17.847 L240.247,17.934 C239.725,17.963 239.551,17.963 238.246,17.963 C238.333,13.615 238.333,13.122 238.449,12.716 L238.246,12.629" id="Fill-22"></path>
      <path d="M247.635,23.993 C244.938,24.718 242.967,25.24 242.967,28.458 C242.967,29.589 243.605,31.995 246.968,31.995 C248.475,31.995 249.954,31.212 250.853,30.024 C251.201,30.952 251.548,31.792 253.259,31.792 C254.071,31.792 254.969,31.444 255.723,31.155 C255.665,30.981 255.607,30.807 255.607,30.633 C255.607,30.459 255.665,30.285 255.723,30.111 C255.462,30.227 255.201,30.343 254.911,30.343 C253.926,30.343 253.897,29.647 253.897,26.806 C253.897,25.849 253.984,22.921 253.984,21.848 C253.984,18.92 251.838,17.5 248.707,17.5 C247.2,17.5 246.301,17.789 244.098,19.123 C244.126,19.384 244.126,19.645 244.126,19.906 C244.126,20.399 244.069,20.775 243.982,21.326 C244.126,21.297 244.301,21.268 244.445,21.268 C244.59,21.268 244.735,21.297 244.88,21.326 C245.054,20.631 245.808,19.268 248.011,19.268 C249.577,19.268 250.824,20.138 250.824,22.341 C250.824,22.544 250.795,22.747 250.708,22.921 C250.563,23.182 250.331,23.269 248.62,23.733 L247.635,23.993 L247.635,23.993 Z M250.737,27.472 C250.737,28.98 249.722,30.227 248.156,30.227 C246.997,30.227 246.243,29.27 246.243,27.734 C246.243,25.646 247.432,25.327 250.737,24.457 L250.737,27.472 L250.737,27.472 Z" id="Fill-23"></path>
      <path d="M273.967,108.893 C274.931,108.839 276.43,108.571 277.93,108.571 C279.43,108.571 281.304,108.839 282.108,108.893 C279.698,103.698 276.162,95.61 274.127,90.951 C272.199,86.452 268.986,78.954 266.415,71.616 C265.826,71.777 265.29,71.884 264.701,71.884 C264.059,71.884 263.523,71.777 262.934,71.616 C261.648,76.008 258.542,82.971 253.133,95.075 L246.92,108.893 C247.669,108.786 248.419,108.571 249.33,108.571 C250.187,108.571 251.204,108.786 251.901,108.893 C252.758,105.84 254.471,101.395 256.185,97.271 C258.328,97.163 260.47,97.057 262.612,97.057 C264.915,97.057 267.165,97.163 269.468,97.271 L271.717,102.948 L273.967,108.893 L273.967,108.893 Z M267.915,93.95 C266.254,94.057 264.648,94.164 262.987,94.164 C261.113,94.164 259.292,94.004 257.417,93.95 L262.88,80.775 L267.915,93.95 L267.915,93.95 Z" id="Fill-24"></path>
      <path d="M283.982,108.893 C285.589,108.732 286.767,108.571 287.678,108.571 C288.802,108.571 290.141,108.839 290.784,108.893 C290.463,105.572 290.302,100.377 290.302,96.949 C290.302,93.254 290.57,92.451 290.945,91.647 C291.587,90.255 293.301,88.755 295.711,88.755 C295.979,88.755 297.961,88.755 298.871,89.505 L299.246,89.237 C299.086,88.594 298.978,87.791 298.978,86.934 C298.978,86.184 299.032,83.881 299.461,83.078 C299.032,82.971 298.603,82.917 298.068,82.917 C293.783,82.917 291.641,86.505 290.195,88.808 C290.195,86.184 290.195,85.916 290.516,83.185 C289.659,83.399 288.749,83.506 287.463,83.506 C286.071,83.506 285.16,83.399 283.929,83.185 C284.196,87.898 284.304,89.237 284.304,95.075 C284.304,97.163 284.304,101.288 284.196,103.644 L283.982,108.893" id="Fill-25"></path>
      <path d="M310.858,73.759 C309.894,74.616 307.805,76.115 304.753,77.508 C304.86,79.971 304.86,82.114 304.86,83.613 L302.503,83.613 C301.807,83.613 301.057,83.453 300.682,83.399 C300.789,84.042 300.843,84.524 300.843,85.113 C300.843,85.649 300.735,86.024 300.682,86.291 C301.325,86.238 302.182,86.131 303.199,86.131 L304.806,86.131 C304.806,90.415 304.485,99.788 304.485,102.144 C304.485,104.287 304.913,106.751 306.734,108.197 C307.966,109.161 310.055,109.589 311.554,109.589 C313.322,109.589 316.053,108.839 317.607,108.036 C317.499,107.661 317.392,107.34 317.392,106.804 C317.392,106.376 317.553,105.787 317.607,105.519 C316.535,106.268 315.571,106.643 314.393,106.643 C310.805,106.643 310.537,104.34 310.537,96.414 C310.537,94.164 310.697,88.433 310.697,86.131 C313.643,86.131 314.232,86.131 316.535,86.345 C316.428,85.809 316.375,85.327 316.375,84.738 C316.375,84.202 316.428,83.881 316.535,83.399 L314.554,83.56 C313.59,83.613 313.268,83.613 310.858,83.613 C311.019,75.58 311.019,74.669 311.233,73.919 L310.858,73.759" id="Fill-26"></path>
      <path d="M319.84,102.841 C319.733,103.43 319.733,104.394 319.465,105.304 C319.251,106.108 318.822,107.126 318.662,107.554 C321.393,108.732 323.535,109.643 326.588,109.643 C334.193,109.643 336.818,104.126 336.818,100.806 C336.818,95.61 332.962,94.379 329.588,93.254 C325.571,91.915 323.75,91.326 323.75,88.969 C323.75,86.773 325.517,85.434 328.088,85.434 C331.355,85.434 332.373,87.469 333.23,89.183 L334.087,89.183 C334.193,88.005 334.354,86.505 335.426,84.416 C333.872,83.774 331.462,82.81 328.249,82.81 C322.304,82.81 318.93,86.291 318.93,91.058 C318.93,95.932 322.09,97.324 323.16,97.86 C323.589,98.074 326.106,98.931 326.803,99.199 C329.32,100.163 331.409,100.859 331.409,103.109 C331.409,105.037 330.07,106.911 327.392,106.911 C322.411,106.911 321.286,103.965 320.804,102.841 L319.84,102.841" id="Fill-27"></path>
      <path d="M39.077,28.616 C35.79,28.681 32.62,31.043 29.567,35.702 C26.539,40.36 24.759,45.665 24.223,51.617 C23.974,54.391 24.213,56.349 24.945,57.49 C25.678,58.604 26.825,59.146 28.388,59.115 C30.03,59.082 31.867,58.226 33.902,56.544 C35.937,54.838 37.855,52.031 39.66,48.122 C41.466,44.188 42.566,40.027 42.962,35.636 C43.196,33.023 42.957,31.201 42.244,30.166 C41.559,29.104 40.503,28.588 39.077,28.616 L39.077,28.616 Z M18.202,15.308 C28.289,5.919 41.815,0.176 56.683,0.176 C68.166,0.176 78.85,3.603 87.766,9.489 C86.039,9.204 84.515,9.026 83.484,9.026 C73.302,9.026 65.46,14.218 59.811,23.777 C59.445,24.397 59.087,25.034 58.739,25.69 C55.241,32.679 49.14,50.464 48.229,52.83 C47.466,54.812 47.131,56.066 47.083,56.603 C47.047,57.007 47.099,57.316 47.242,57.528 C47.41,57.74 47.67,57.842 48.021,57.835 C49.436,57.806 51.292,56.189 53.591,52.983 L57.524,52.983 C52.64,60.194 47.744,63.847 42.833,63.947 C40.92,63.985 39.492,63.435 38.546,62.299 C37.602,61.136 37.139,59.397 37.16,57.084 C34.879,59.711 32.724,61.568 30.69,62.658 C28.685,63.718 26.605,64.27 24.452,64.315 C20.761,64.388 17.836,63.13 15.678,60.538 C13.52,57.92 12.649,54.308 13.064,49.702 C13.461,45.286 14.905,41.037 17.397,36.953 C19.914,32.87 22.958,29.678 26.526,27.375 C30.095,25.045 33.645,23.845 37.173,23.775 C39.597,23.726 41.498,24.252 42.878,25.354 C44.258,26.456 45.2,28.225 45.708,30.661 L48.413,24.8 L56.996,24.029 C51.59,16.465 42.735,11.535 32.729,11.535 C27.455,11.535 22.5,12.905 18.202,15.308 L18.202,15.308 Z M98.367,94.795 C88.038,106.08 73.187,113.158 56.683,113.158 C46.687,113.158 37.298,110.562 29.153,106.008 C39.386,104.637 45.409,95.274 50.325,81.843 L61.751,52.983 L82.898,52.983 L86.493,62.634 L66.139,62.634 C58.16,80.923 49.592,100.071 49.592,100.071 C50.898,99.885 53.203,99.512 54.789,99.512 C56.281,99.512 59.053,99.885 60.265,100.071 C60.337,100.073 71.515,71.821 71.515,71.821 L89.899,71.821 L98.367,94.795 L98.367,94.795 Z M97.751,17.878 C107.312,27.997 113.173,41.647 113.173,56.667 C113.173,65.514 111.14,73.887 107.514,81.342 C100.281,64.736 89.733,39.878 86.514,30.691 C85.488,30.971 84.237,31.158 83.212,31.158 C82.093,31.158 80.478,30.971 79.452,30.691 C78.93,32.476 77.025,37.205 74.412,43.409 L65.502,43.409 L67.641,37.6 L70.77,29.131 C74.115,20.156 78.679,13.159 85.538,13.159 C92.524,13.159 94.444,20.149 94.429,26.408 L97.751,17.878 L97.751,17.878 Z M0.192,56.667 C0.192,50.492 1.182,44.549 3.013,38.987 C2.953,39.764 2.922,40.55 2.922,41.343 C2.922,57.805 16.267,71.15 32.729,71.15 C35.981,71.15 39.112,70.629 42.043,69.666 L37.481,82.087 C32.98,94.457 29.343,100.904 22.71,101.806 C9.033,91.496 0.192,75.114 0.192,56.667 L0.192,56.667 Z" id="Fill-28"></path>
  </g>
</svg>