<svg width="254" height="81" xmlns="http://www.w3.org/2000/svg">
  <g fill="none" fill-rule="evenodd">
    <path d="M94.8413521 68.8823913c-.0504789-.3175652-.216338-1.5878261-1.9794929-1.5878261-2.2102536 0-2.6014648 2.2608478-2.6014648 3.7855218 0 1.7285652.4939718 3.5960652 2.588845 3.5960652.5588733 0 1.0925071-.1407392 1.4837183-.5467174.3317184-.3554565.4074367-.7488044.4452958-.9653261h1.3953803c-.1892958 1.8043478-1.8532958 2.5549565-3.4271549 2.5549565-3.2234366 0-3.8454085-2.8472609-3.8454085-4.6263478 0-1.9306522.7499719-4.814 4.0112676-4.814 1.2944226 0 3.1224789.5214565 3.2865352 2.6036739h-1.3575211M97.7060282 66.4176522h1.2060845v3.7223695c.3948173-.6730217 1.1826483-1.0537391 2.0714363-1.0537391.670648 0 1.635155.2417826 2.004733 1.0158478.126197.2544131.214535.5593479.214535 1.4867826v3.9894131h-1.218704v-3.7728913c0-.5719783 0-1.8043478-1.370141-1.8043478-.888789 0-1.332282.5467173-1.498141.8498478-.2037183.3572609-.2037183.9545-.2037183 1.3478478v3.3795435h-1.2060845v-9.1606739M108.088451 74.9053043c.901408 0 1.929014-.6495652 1.929014-2.5675869 0-1.5878261-.73555-2.4268478-1.851493-2.4268478-.762592 0-1.993916.4835652-1.993916 2.4791739 0 1.3081522.557071 2.5152608 1.916395 2.5152608zm.077521-5.8713478c2.550986 0 3.122479 2.0082392 3.122479 3.3416522 0 1.8693043-1.052845 3.4174348-3.22524 3.4174348-2.10569 0-3.135098-1.4597174-3.135098-3.3272174 0-1.5751957.735549-3.4318696 3.237859-3.4318696zM113.053408 75.5783261h1.193465v-6.3783696h-1.193465v6.3783696zm-.126197-7.838087h1.435043v-1.3099565h-1.435043v1.3099565zM120.142085 71.246087c-.027043-.2923044-.115381-1.3352174-1.269184-1.3352174-1.649577 0-1.649577 1.9198261-1.649577 2.4015869 0 1.3099565.315493 2.5296957 1.584676 2.5296957 1.016789 0 1.359324-.7632392 1.384563-1.3857392h1.204282c-.073915 1.245-1.002366 2.2879131-2.576225 2.2879131-.430874 0-1.42062-.0902174-2.094874-.8263913-.380394-.4456739-.762591-1.1186957-.762591-2.4394783 0-2.656 1.626141-3.4445 2.897127-3.4445.418253 0 1.370141.0902174 1.954253.7885.470535.5467174.508395 1.0681739.533634 1.4236305h-1.206084M127.084732 71.7675435c.01262-.6116739-.10276-1.8801305-1.575662-1.8801305-.771605 0-1.712676.4691305-1.737915 1.8801305h3.313577zm-3.364056.8372174c-.027042 1.3225869.519211 2.3005434 1.828056 2.3005434.773409 0 1.395381-.4059782 1.498141-1.3225869h1.193465c-.039662.3193696-.090141.8390217-.548056 1.3352174-.279437.3175652-.912226.8498478-2.195831.8498478-2.004733 0-2.95662-1.245-2.95662-3.2640652 0-1.2576304.252394-2.3005435 1.256563-2.9988261.609352-.4312391 1.371944-.4709348 1.739719-.4709348 2.855662 0 2.792563 2.5296957 2.765521 3.5708044h-4.580958zM130.812958 73.6855652c-.01262.4817609.241577 1.156587 1.397183 1.156587.492169 0 .863549-.0902174 1.115944-.4059783.128-.166.203718-.3825217.203718-.5972391 0-.6243044-.443493-.7379783-1.397183-.9545-1.332282-.3049348-2.448226-.5719783-2.448226-1.9053913 0-1.1692174 1.013183-1.9306522 2.487888-1.9306522.798648 0 1.916394.2291522 2.296788.990587.16586.3554565.16586.6603913.16586.9274347h-1.220507c.039662-.965326-.798648-1.0411087-1.229522-1.0411087-.178478 0-1.294422 0-1.294422.9148044 0 .5846087.56969.7235435.901408.8137609 1.761352.4186087 2.14355.5196521 2.523944.8751087.355155.3301956.483155.7758695.483155 1.1818478 0 .710913-.393014 1.3207826-.863549 1.6130869-.557071.3428261-1.233127.4312392-1.891155.4312392-1.294423 0-2.500507-.5322826-2.487888-2.069587h1.256564M141.070986 72.1608913h3.466817l-1.691042-4.4982391-1.775775 4.4982391zm1.155606-5.7558696h1.359323l3.704789 9.1733044h-1.38276l-.989747-2.3889565h-4.252845l-.989746 2.3889565h-1.307043l3.858029-9.1733044zM148.635606 75.5783261h1.193464v-9.1606739h-1.193464zM154.967099 69.8477174c-1.828057 0-1.828057 2.1345435-1.828057 2.5423261 0 .4186087 0 2.4142174 1.779381 2.4142174 1.471098 0 1.838873-1.4362609 1.838873-2.4791739 0-.6351305-.126197-2.4773696-1.790197-2.4773696zm-1.801014.2796739c.165859-.2923043.634591-1.0934348 2.082253-1.0934348.634592 0 1.433239.1533696 2.017352.8137609.317296.3680869.749972 1.0032174.749972 2.4015869 0 1.2323696-.292056 1.9053914-.609352 2.3258044-.508395.7235435-1.359324 1.0916304-2.235493 1.0916304-.304676 0-.876169-.0378913-1.42062-.4059782-.356958-.2417826-.495774-.4565-.621972-.6477609l-.025239.9653261h-1.155606l.02524-1.1421522v-8.0311522h1.193465v3.7223696zM163.910873 71.7675435c.01262-.6116739-.10276-1.8801305-1.573859-1.8801305-.775211 0-1.712676.4691305-1.739718 1.8801305h3.313577zm-3.364056.8372174c-.02524 1.3225869.521014 2.3005434 1.828056 2.3005434.775212 0 1.395381-.4059782 1.499944-1.3225869h1.193465c-.039662.3193696-.090141.8390217-.548057 1.3352174-.279436.3175652-.912225.8498478-2.195831.8498478-2.004732 0-2.958422-1.245-2.958422-3.2640652 0-1.2576304.254197-2.3005435 1.258366-2.9988261.609352-.4312391 1.371944-.4709348 1.737916-.4709348 2.857464 0 2.794366 2.5296957 2.767323 3.5708044h-4.58276zM166.898141 70.4954783c0-.4312392-.02524-.8751087-.063099-1.2955218h1.204282l.027042 1.2323696c.228958-.8895435.989747-1.1818478 1.52338-1.2576304.355155-.0505218.620169-.0378914.825691-.0252609v1.1692174c-.064902-.0252609-.14062-.0396957-.227155-.0505218-.091944-.0126304-.205521-.0126304-.346141-.0126304-1.406197 0-1.737916.8372174-1.737916 1.9288478v3.3939783h-1.206084v-5.0828478M171.237521 69.1746957h1.130366v-1.3334131l1.179043-.3807174v1.7141305h1.422422v.876913h-1.422422v3.823413c0 .3175653 0 .8516522.849126.8516522.241578 0 .470536-.0378913.573296-.0631522v.9274348c-.216338.0378913-.560676.0757826-.991549.0757826-1.090704 0-1.609916-.3175652-1.609916-1.3586739v-4.2564565h-1.130366v-.876913M179.609803 72.4405652c-.481352 0-2.296789 0-2.296789 1.2955218 0 .4059782.252394 1.1060652 1.319662 1.1060652.609352 0 1.067268-.243587 1.359324-.6874565.265014-.4312392.277634-.7866957.304676-1.6762392-.216338-.0252608-.39662-.0378913-.686873-.0378913zm.82569 3.1377609c-.090141-.3175652-.113578-.6225-.113578-.9526957-.573295 1.0555435-1.435042 1.156587-1.968676 1.156587-1.460281 0-2.246309-.8263913-2.246309-1.8801304 0-.5088261.176676-1.322587 1.117746-1.8693044.68507-.378913 1.700056-.4186087 2.208451-.4186087.304676 0 .493972.0126304.863549.0396957 0-.7885 0-1.1313261-.230761-1.411-.239774-.3175653-.760788-.4204131-1.101521-.4204131-1.207887 0-1.270986.8263913-1.281802 1.0808044h-1.193465c.036056-.332.073915-.7758696.443493-1.2071087.479549-.534087 1.380957-.6856522 2.055211-.6856522.926648 0 1.918197.2923043 2.25893.9400652.205521.3807174.216338.6856522.216338.9779565l-.050479 3.0493479c0 .1010434.012619.9526956.100957 1.6004565h-1.078084zM183.529127 69.9361304l-.01262-.7361739h1.193465l.01262 1.0302826c.138816-.2670434.594929-1.1565869 2.044394-1.1565869.56969 0 2.309408.2165217 2.309408 2.1724348v4.3322391h-1.220507v-4.0525652c0-.4204131-.048676-.8011305-.342535-1.0934348-.302873-.2923044-.722929-.4312391-1.128563-.4312391-.86355 0-1.662197.6225-1.662197 1.9053913v3.6718478h-1.193465v-5.6421957M191.939268 73.6855652c-.01262.4817609.24338 1.156587 1.397183 1.156587.493972 0 .863549-.0902174 1.115943-.4059783.128-.166.205521-.3825217.205521-.5972391 0-.6243044-.445295-.7379783-1.398985-.9545-1.332282-.3049348-2.448226-.5719783-2.448226-1.9053913 0-1.1692174 1.013183-1.9306522 2.487888-1.9306522.80045 0 1.916394.2291522 2.296788.990587.165859.3554565.165859.6603913.165859.9274347h-1.218704c.037859-.965326-.80045-1.0411087-1.231324-1.0411087-.178479 0-1.294422 0-1.294422.9148044 0 .5846087.56969.7235435.901408.8137609 1.763155.4186087 2.143549.5196521 2.523944.8751087.356958.3301956.483155.7758695.483155 1.1818478 0 .710913-.393014 1.3207826-.86355 1.6130869-.55707.3428261-1.231323.4312392-1.889352.4312392-1.294422 0-2.502309-.5322826-2.487887-2.069587h1.254761M204.128113 71.246087c-.027043-.2923044-.115381-1.3352174-1.269183-1.3352174-1.649578 0-1.649578 1.9198261-1.649578 2.4015869 0 1.3099565.315493 2.5296957 1.584676 2.5296957 1.016789 0 1.359324-.7632392 1.384564-1.3857392h1.206084c-.075718 1.245-1.004169 2.2879131-2.578028 2.2879131-.430873 0-1.42062-.0902174-2.094873-.8263913-.380395-.4456739-.760789-1.1186957-.760789-2.4394783 0-2.656 1.626141-3.4445 2.895324-3.4445.418253 0 1.371944.0902174 1.956056.7885.46693.5467174.506592 1.0681739.531831 1.4236305h-1.206084M210.053972 72.4405652c-.484958 0-2.300395 0-2.300395 1.2955218 0 .4059782.256 1.1060652 1.321465 1.1060652.609352 0 1.067268-.243587 1.359324-.6874565.265014-.4312392.277634-.7866957.304676-1.6762392-.214535-.0252608-.393014-.0378913-.68507-.0378913zm.823887 3.1377609c-.088338-.3175652-.11538-.6225-.11538-.9526957-.56969 1.0555435-1.43324 1.156587-1.966873 1.156587-1.460282 0-2.24631-.8263913-2.24631-1.8801304 0-.5088261.176676-1.322587 1.117746-1.8693044.683268-.378913 1.700057-.4186087 2.208451-.4186087.304676 0 .495775.0126304.863549.0396957 0-.7885 0-1.1313261-.228957-1.411-.241578-.3175653-.760789-.4204131-1.105127-.4204131-1.206085 0-1.269183.8263913-1.281803 1.0808044h-1.193465c.039662-.332.075718-.7758696.443493-1.2071087.483155-.534087 1.384563-.6856522 2.057014-.6856522.928451 0 1.918197.2923043 2.260733.9400652.201915.3807174.214535.6856522.214535.9779565l-.050479 3.0493479c0 .1010434.01262.9526956.100958 1.6004565h-1.078085zM213.973296 69.9361304l-.01262-.7361739h1.193465l.01262 1.0302826c.138816-.2670434.596732-1.1565869 2.044394-1.1565869.56969 0 2.309408.2165217 2.309408 2.1724348v4.3322391h-1.218704v-4.0525652c0-.4204131-.050479-.8011305-.342535-1.0934348-.304676-.2923044-.724732-.4312391-1.128563-.4312391-.865353 0-1.664.6225-1.664 1.9053913v3.6718478h-1.193465v-5.6421957M223.607549 69.1746957h1.132169v-1.3334131l1.180845-.3807174v1.7141305h1.422423v.876913h-1.422423v3.823413c0 .3175653 0 .8516522.849127.8516522.241578 0 .470535-.0378913.573296-.0631522v.9274348c-.216338.0378913-.560676.0757826-.991549.0757826-1.092507 0-1.611719-.3175652-1.611719-1.3586739v-4.2564565h-1.132169v-.876913M228.81769 70.4954783c0-.4312392-.027042-.8751087-.064901-1.2955218h1.206084l.02524 1.2323696c.227155-.8895435.989746-1.1818478 1.52338-1.2576304.355155-.0505218.621972-.0378914.82569-.0252609v1.1692174c-.064901-.0252609-.138817-.0396957-.228958-.0505218-.09014-.0126304-.201915-.0126304-.342535-.0126304-1.408 0-1.737915.8372174-1.737915 1.9288478v3.3939783h-1.206085v-5.0828478M234.835493 69.1999565v4.1048913c0 .6225.138817 1.4091957 1.357521 1.4091957.59493 0 1.153803-.202087 1.496338-.7109131.266817-.3807174.266817-.876913.266817-1.1944782v-3.6086957h1.231324v5.1838913c0 .1281087.027042.8390218.037859 1.1944783h-1.243944l-.025239-1.0934348c-.228958.4456739-.659831 1.156587-2.031775 1.156587-1.573859 0-2.309408-.9003696-2.309408-2.1598044v-4.2817174h1.220507M242.144113 73.6855652c-.01262.4817609.239774 1.156587 1.39538 1.156587.493972 0 .865352-.0902174 1.117746-.4059783.126198-.166.201916-.3825217.201916-.5972391 0-.6243044-.445296-.7379783-1.39538-.9545-1.332282-.3049348-2.448226-.5719783-2.448226-1.9053913 0-1.1692174 1.013183-1.9306522 2.487888-1.9306522.798648 0 1.916394.2291522 2.296788.990587.16586.3554565.16586.6603913.16586.9274347h-1.220508c.03786-.965326-.798647-1.0411087-1.231323-1.0411087-.176677 0-1.294423 0-1.294423.9148044 0 .5846087.571493.7235435.901408.8137609 1.763155.4186087 2.145353.5196521 2.525747.8751087.355155.3301956.483155.7758695.483155 1.1818478 0 .710913-.394817 1.3207826-.863549 1.6130869-.560677.3428261-1.233127.4312392-1.891155.4312392-1.296226 0-2.500507-.5322826-2.487888-2.069587h1.256564M247.01893 69.1746957h1.130366v-1.3334131l1.179042-.3807174v1.7141305h1.422423v.876913h-1.422423v3.823413c0 .3175653 0 .8516522.85093.8516522.239774 0 .468732-.0378913.571493-.0631522v.9274348c-.214536.0378913-.560676.0757826-.99155.0757826-1.090704 0-1.609915-.3175652-1.609915-1.3586739v-4.2564565h-1.130366v-.876913M252.261521 75.5783261h1.408v-1.5246739h-1.408z" fill="#fff"></path>
    <path d="M112.467493 44.6085l-5.157859-15.9125435L101.782197 44.6085h10.685296zm-.203718-23.245413L125.218817 58.7185h-8.053183l-2.684395-8.0654348H99.717972L96.9362254 58.7185h-7.6439437l13.4688453-37.355413h9.502648zM151.806761 32.8297174c-.054085-.9869783-.106367-2.324-1.040226-3.771087-1.532394-2.4809782-4.487211-2.8887608-6.243155-2.8887608-9.084394 0-10.890817 8.466-10.890817 14.2056304 0 2.5242826.367775 7.0748478 3.100845 10.0213478 1.858705 2.0677826 4.335775 3.2027174 8.770705 3.2027174 3.874253 0 5.217352-.4673261 6.091718-.7235435V45.0235h-7.222085v-6.2015435h15.222986v18.6533478c-2.327436.777674-6.142197 2.0623696-13.62569 2.0623696-8.511098 0-12.90276-2.0623696-15.850366-4.9583478-4.177127-4.0778261-4.952338-10.0213478-4.952338-13.9548261 0-13.2168478 8.258704-20.3025217 19.562366-20.3025217 4.802704 0 9.755042 1.3478478 12.700845 4.700326 2.473465 2.8472609 2.633916 5.7901522 2.686197 7.8074131h-8.310985M164.868169 21.4063913h8.152338v30.9517826h16.005408V58.7185h-24.157746V21.4063913M211.483606 33.5550652c-.155043-1.2991304-.620169-6.562413-6.039437-6.562413-5.938479 0-8.411944 6.1997391-8.411944 13.8970869 0 2.2157392 0 12.8144783 7.791775 12.8144783 3.355042 0 6.555042-2.1165 6.708282-7.0802609h8.413746c-.149634 2.2175435-.356958 5.6818913-3.351436 8.7817609-3.306367 3.408413-7.487099 4.1860869-10.896226 4.1860869-12.846873 0-17.029408-9.5071086-17.029408-18.758 0-11.8256956 6.607324-19.6836304 17.08169-19.6836304 8.157746 0 13.88169 4.9601522 13.88169 12.4048913h-8.148732M74.7615775 21.3342174c3.6831549 6.5191087.9590986 16.766-18.6230986 22.5778043-7.5015212 2.2247609-16.7625916 2.9140218-23.503324 3.0060435-1.5396056.0270652-2.8051831.1245-3.9301408.3157609-.955493.1605869-1.8100282.3843261-2.5870423.7018913-3.6074366 1.5373043-6.1403943 5.1207391-6.1403943 9.2905869 0 3.0800218 1.388169 5.840674 3.5623662 7.6973479.4398873.3446304.9032112.6838478 1.4098028 1.001413.0054084.0036087.0054084.0036087.0108169.0072174.1334084.0793913.2704225.1533696.4020281.2309565 2.3184226 1.3388261 5.347155 2.3492609 9.1889578 2.8057609 18.2877746 2.1616087 39.4600563-5.1243478 43.8625352-17.181 0 0 1.2295211-4.2781087 1.4296338-7.3346739 1.0384225-15.9323913-5.0821408-23.1191087-5.0821408-23.1191087m-35.820169 52.5191522c-17.7343099-.9923913-23.4564508-7.1470218-23.8999437-4.6461957-.1965071 1.0898261.6363944 2.7534348 3.8940845 4.98 4.6566761 3.1991087 10.3193239 5.1243478 16.2812394 5.9363044 6.5983099.9093913 14.0854085-.1768261 20.2366198-2.7642609 6.1277746-2.5910435 11.7129014-6.7536739 15.8647887-11.9447826 0 0-11.9148169 9.5828913-32.3767887 8.4389348m-5.9312677-59.2096739c5.1236057-.8354131 11.4190423-2.3330218 14.2620846-4.7688914 2.6176901-2.246413 4.8459718-7.37978256-2.1165071-8.82145647-2.6771831-.56836957-5.6464225-.51965218-6.7858028-.46191305C25.0398873 1.29332609 16.1285634 7.73123913 10.776 13.4835c0 0 10.2454085 3.0980652 22.2341408 1.1601957m29.1497465 12.6196086c0 1.7718696-.4416901 3.439087-1.2150986 4.9114348-.3695774.6694131-.787831 1.3063479-1.260169 1.8783261-2.4175774 2.9609348-6.0881127 4.8338478-9.4864225 5.8334565-7.3951549 2.1850653-20.1068169 3.060174-30.2530704 2.188674C8.89205634 41.1225 1.04259155 39.7872826.59369014 37.18c-.36597183-2.1796522 1.07267606-7.3743696 1.8983662-9.8860217 1.68022535-5.1532174 5.35256338-10.2378696 5.35256338-10.2378696 2.76552108 2.7877174 22.60011268 4.0435435 40.73284508 0 .2740282-.0667609.5192113-.0920217.7806197-.1425435.1298028-.0252609.2686197-.0451087.4056338-.0649565.1334085-.0216522.2722254-.0505217.4146479-.0667609.6057465-.0721739 1.1808451-.0848043 1.7469296-.0811956 5.6824788.1840435 10.2345915 4.8392608 10.2345915 10.5626521" fill="#fff"></path>
  </g>
</svg>