<svg version="1.1" id="jasperlogo" xmlns="http://www.w3.org/2000/svg" xmlns:xlink="http://www.w3.org/1999/xlink" x="0px" y="0px" viewBox="0 0 222.6 125.2" enable-background="new 0 0 222.6 125.2" xml:space="preserve" preserveAspectRatio="xMinYMin">
  <path fill="#fff" class="mark" d="M15.8,70.4h16.3C22.5,98.1,6,118,5.8,118.3l-5.8,7h38.5c15.4,0,28-12.6,28-28V0
    C39.2,45.7,15.8,70.4,15.8,70.4z M58,97.2c0,10.8-8.4,19.1-19.2,19.1H18c6.6-9.3,17.4-26.8,24.1-49l1.7-5.5h-9.9
    C42.5,51.9,50.6,41,58,29.4V97.2z"></path>
  <path fill="#fff" d="M92.4,92.4c0,2.5-2,4.5-4.5,4.5h-5.6c-2.5,0-4.5-2-4.5-4.5V88h4.5v4.5h5.6V65.6h4.5V92.4z"></path>
  <path fill="#fff" d="M120.9,96.9h-4.7l-0.9-4.5h-7.8l-0.9,4.5h-4.7l6.7-31.3h5.6L120.9,96.9z M114.4,88l-2.9-14.6L108.4,88
    H114.4z"></path>
  <path fill="#fff" d="M143.8,83.1c1.5,1.4,2.1,2.9,2.1,4.7v4.6c0,2.5-2,4.5-4.5,4.5h-6.7c-2.5,0-4.5-2-4.5-4.5V88h4.5v4.5h6.7
    v-5.2l-9-9c-1.5-1.4-2.1-2.9-2.1-4.7v-3.4c0-2.5,2-4.5,4.5-4.5h6.7c2.5,0,4.5,2,4.5,4.5v4.5h-4.5v-4.5h-6.7v4L143.8,83.1z"></path>
  <path fill="#fff" d="M172.8,79.9c0,2.5-2,4.5-4.5,4.5h-6.7v12.5h-4.5V65.6h11.2c2.5,0,4.5,2,4.5,4.5V79.9z M168.3,79.9v-9.8
    h-6.7v9.8H168.3z"></path>
  <path fill="#fff" d="M195.4,96.9H182V65.6h13.4v4.5h-8.9v8h6.7v4.5h-6.7v9.8h8.9V96.9z"></path>
  <path fill="#fff" d="M221.6,96.9h-4.7l-2.9-12.5h-3.5v12.5H206V65.6h11.2c2.5,0,4.5,2,4.5,4.5v9.8c0,2.4-1.2,3.8-3.5,4.2
    L221.6,96.9z M217.2,79.9v-9.8h-6.7v9.8H217.2z"></path>

  <path fill="#fff" d="M87.2,122.2c0,1.6-1.3,2.9-2.9,2.9h-3.6c-1.6,0-2.9-1.3-2.9-2.9v-14.5c0-1.6,1.3-2.9,2.9-2.9h3.6
    c1.6,0,2.9,1.3,2.9,2.9v2.5h-2.2v-2.5c0-0.4-0.3-0.7-0.7-0.7h-3.6c-0.4,0-0.7,0.3-0.7,0.7v14.5c0,0.4,0.3,0.7,0.7,0.7h3.6
    c0.4,0,0.7-0.3,0.7-0.7v-2.5h2.2V122.2z"></path>
  <path fill="#fff" d="M112.2,121.8h-5.6L106,125h-2.2l4.3-20.2h2.6l4.3,20.2h-2.2L112.2,121.8z M107.1,119.6h4.7l-2.3-11.4
    L107.1,119.6z"></path>
  <path fill="#fff" d="M141,125h-1.8l-5.4-15v15h-2.2v-20.2h2.4l4.8,13.6v-13.6h2.2V125z"></path>
  <path fill="#fff" d="M166,121.8h-5.6l-0.7,3.3h-2.2l4.3-20.2h2.6l4.3,20.2h-2.2L166,121.8z M160.8,119.6h4.7l-2.3-11.4
    L160.8,119.6z"></path>
  <path fill="#fff" d="M194.8,122.2c0,1.6-1.3,2.9-2.9,2.9h-6.5v-20.2h6.5c1.6,0,2.9,1.3,2.9,2.9V122.2z M192.6,107.7
    c0-0.4-0.3-0.7-0.7-0.7h-4.3v15.9h4.3c0.4,0,0.7-0.3,0.7-0.7V107.7z"></path>
  <path fill="#fff" d="M219.7,121.8h-5.6l-0.7,3.3h-2.2l4.3-20.2h2.6l4.3,20.2h-2.2L219.7,121.8z M214.6,119.6h4.7l-2.3-11.4
    L214.6,119.6z"></path>
</svg>