<?xml version="1.0" encoding="UTF-8"?>
<svg width="1489px" height="446px" viewBox="0 0 1489 446" version="1.1" xmlns="http://www.w3.org/2000/svg" xmlns:xlink="http://www.w3.org/1999/xlink">
    <!-- Generator: Sketch 47.1 (45422) - http://www.bohemiancoding.com/sketch -->
    <title>lg_logo_white</title>
    <desc>Created with Sketch.</desc>
    <defs></defs>
    <g id="Page-1" stroke="none" stroke-width="1" fill="none" fill-rule="evenodd">
        <g id="lg_logo_white" fill-rule="nonzero" fill="#FFFFFF">
            <path d="M180,386.46501 C162.412519,402.122856 143.798507,413.594305 120.830523,419.692275 C129.935835,385.563911 147.283492,357.832546 170.592649,333.284127 C124.878443,341.167236 81.1460523,338.595392 39.4948183,314.620946 C63.6187779,295.485141 91.6732541,290.190934 120.960971,284.302685 C101.942569,273.191475 85.0625206,261.565495 70.2094425,247.248259 C55.2841159,232.859779 41.537844,215.83423 31.8134028,197.06067 C34.4996404,197.160011 34.915069,197.079735 35.5111188,197.102815 C39.3352696,197.247312 43.1523963,197.576443 46.9775506,197.690837 C69.1738813,198.358132 90.3908441,203.401475 109.960141,213.768125 C128.69557,223.695263 146.821904,234.773359 165.222181,245.332672 C166.712305,246.187612 168.254609,246.949231 170.564553,248.175448 C170.272548,246.321071 170.216355,245.532358 170.019679,244.780774 C164.705404,224.452868 158.712796,204.273474 154.239412,183.76294 C149.844298,163.615656 146.92827,147.257402 144.771854,126.776972 C142.762946,107.694349 143.596813,84.3982362 147.578506,65.5062688 C149.78108,55.0553292 152.490398,44.7117588 154.926776,34.3099882 C163.088844,43.9952949 171.224823,53.6504981 180,64.0623031 L180,37.3895786 C179.683913,36.8487186 179.332705,36.3429795 178.954404,35.9014611 L146.741628,0 C121.979474,67.7971469 119.610327,135.905363 138.600632,205.386301 C95.5034257,184.232555 50.5990044,175.186447 2.1945468,179.132015 C18.3200004,217.11965 42.5091844,248.255724 73.0010425,275.039831 C59.6089887,280.84078 46.9574816,285.90921 34.6782547,291.758324 C22.3799622,297.61647 10.8804165,304.893495 0,314.196487 C38.022756,339.495487 79.3087339,353.090238 124.984809,356.918403 C108.398771,384.816341 99.887502,414.274644 95.4994119,445.668605 C98.124439,445.205011 99.9085745,444.939096 101.671637,444.57083 C129.134078,438.836109 154.664875,428.56278 177.524487,412.097156 C178.305172,411.535224 179.247412,410.838829 180,410.096276 L180,386.46501 Z" id="Fill-1"></path>
            <path d="M344.2,297.7 L247.9,297.7 L247.9,128.5 C247.9,125.2 245.8,123.1 242.5,123.1 L212.2,123.1 C208.6,123.1 206.5,125.2 206.5,128.5 L206.5,328.6 C206.5,331.9 208.6,334 212.2,334 L344.2,334 C347.8,334 349.9,331.9 349.9,328.6 L349.9,303.1 C349.9,299.5 347.8,297.7 344.2,297.7 Z M500.89,265.3 C500.89,267.1 500.89,268.6 500.59,270.4 C500.29,273.7 498.49,275.8 495.19,275.8 L399.49,275.8 C403.99,292 419.29,303.7 440.29,303.7 C455.89,303.7 465.79,298 472.39,293.2 C475.39,291.1 478.09,291.4 479.89,294.7 L490.39,313.3 C492.19,316.3 491.89,319 489.19,321.1 C479.89,328.3 463.09,336.7 436.09,336.7 C392.29,336.7 360.19,305.5 360.19,265 C360.19,224.8 389.89,193.3 432.19,193.3 C473.89,193.3 500.89,223.9 500.89,265.3 Z M433.69,224.5 C416.29,224.5 403.69,233.8 399.49,250.6 L463.69,250.6 L463.39,249.7 C460.99,235 449.29,224.5 433.69,224.5 Z M661.28,196 C664.88,196 666.98,198.1 666.98,201.4 L666.98,328.6 C666.98,331.9 664.88,334 661.28,334 L637.58,334 C633.98,334 631.88,332.2 631.58,328.6 L630.68,315.4 C620.48,327.7 605.48,336.7 585.08,336.7 C546.98,336.7 518.78,305.8 518.78,265 C518.78,224.2 547.88,193.3 585.98,193.3 C604.28,193.3 618.68,199.9 629.18,209.5 L630.08,201.1 C630.38,197.8 632.48,196 635.78,196 L661.28,196 Z M593.78,301 C615.38,301 629.48,285.7 629.18,265 C629.18,244 615.38,229 593.78,229 C573.68,229 558.38,244.3 558.38,265 C558.38,285.4 573.68,301 593.78,301 Z M719.47,334 L747.67,334 C750.97,334 753.07,331.9 753.07,328.6 L753.07,229 L789.07,229 C792.37,229 794.47,226.9 794.47,223.3 L794.47,201.4 C794.47,198.1 792.37,196 789.07,196 L753.07,196 L753.07,181.9 C753.07,161.2 766.27,153.1 779.77,153.1 C785.17,153.1 789.07,154.3 791.77,155.2 C795.07,156.4 797.77,155.8 799.27,152.8 L809.17,132.7 C810.67,129.7 810.07,127 807.07,125.2 C800.17,121.3 789.97,117.4 775.27,117.4 C736.27,117.4 713.77,141.4 713.77,179.8 L713.77,196 L693.37,196 C689.77,196 687.67,198.1 687.67,201.4 L687.67,223.3 C687.67,226.9 689.77,229 693.37,229 L713.77,229 L713.77,328.6 C713.77,331.9 715.87,334 719.47,334 Z" id="Leaf"></path>
            <path d="M1046.1,229 L1018.5,229 C1014.9,229 1012.8,230.8 1012.8,234.4 L1012.8,291.4 C1002.9,296.2 989.7,299.5 973.8,299.5 C933.9,299.5 901.5,270.7 901.5,228.7 C901.5,186.7 932.4,159.1 974.1,159.1 C997.2,159.1 1013.4,166 1021.8,170.5 C1024.8,172 1027.5,171.4 1029.3,168.4 L1041.9,145.3 C1043.7,142.3 1043.1,139.6 1040.1,137.8 C1029.9,131.2 1008.3,120.4 972.3,120.4 C905.7,120.4 858.6,167.8 858.6,228.7 C858.6,289.6 905.7,336.7 971.4,336.7 C1014,336.7 1038.3,322 1048.5,314.5 C1050.9,313 1051.8,310.6 1051.8,307.6 L1051.8,234.4 C1051.8,230.8 1049.7,229 1046.1,229 Z M1208.3,196 L1180.1,196 C1176.8,196 1174.7,198.1 1174.7,201.4 L1174.7,265.6 C1174.7,283.9 1163.3,298.9 1143.8,298.9 C1126.7,298.9 1114.7,285.1 1114.7,264.4 L1114.7,201.4 C1114.7,198.1 1112.6,196 1109,196 L1080.8,196 C1077.5,196 1075.4,198.1 1075.4,201.4 L1075.4,272.2 C1075.4,310.9 1101.8,336.7 1139,336.7 C1158.2,336.7 1173.2,328 1181.3,316 L1182.2,328.6 C1182.5,331.9 1184.6,334 1187.9,334 L1208.3,334 C1211.9,334 1214,331.9 1214,328.6 L1214,201.4 C1214,198.1 1211.9,196 1208.3,196 Z M1328.2,193.6 C1326.1,193.3 1323.7,193.3 1321.3,193.3 C1297.6,193.3 1280.5,206.2 1275.7,223 L1274.5,201.4 C1274.2,198.1 1272.1,196 1268.8,196 L1247.2,196 C1243.6,196 1241.5,198.1 1241.5,201.4 L1241.5,328.6 C1241.5,331.9 1243.6,334 1247.2,334 L1275.4,334 C1278.7,334 1280.8,331.9 1280.8,328.6 L1280.8,264.7 C1280.8,245.2 1294.3,230.8 1316.2,230.8 C1319.5,230.8 1322.2,231.1 1324.3,231.7 C1327.9,232.6 1330.3,231.1 1330.6,227.2 L1332.7,199.6 C1333,196.3 1331.5,193.9 1328.2,193.6 Z M1482.6,196 L1454.4,196 C1451.1,196 1449,198.1 1449,201.4 L1449,265.6 C1449,283.9 1437.6,298.9 1418.1,298.9 C1401,298.9 1389,285.1 1389,264.4 L1389,201.4 C1389,198.1 1386.9,196 1383.3,196 L1355.1,196 C1351.8,196 1349.7,198.1 1349.7,201.4 L1349.7,272.2 C1349.7,310.9 1376.1,336.7 1413.3,336.7 C1432.5,336.7 1447.5,328 1455.6,316 L1456.5,328.6 C1456.8,331.9 1458.9,334 1462.2,334 L1482.6,334 C1486.2,334 1488.3,331.9 1488.3,328.6 L1488.3,201.4 C1488.3,198.1 1486.2,196 1482.6,196 Z" id="Guru"></path>
        </g>
    </g>
</svg>