<svg id="Layer_1" data-name="Layer 1" xmlns="http://www.w3.org/2000/svg" xmlns:xlink="http://www.w3.org/1999/xlink" viewBox="0 0 1685.08 88"><defs><style>.cls-1{fill:none;}.cls-2{fill:#e83a5a;}.cls-3{clip-path:url(#clip-path);}.cls-4{fill:#9ddbb4;}.cls-5{fill:#ffb549;}.cls-6{isolation:isolate;}.cls-7{fill:#a9d7ae;}.cls-8{clip-path:url(#clip-path-2);}.cls-9{fill:#edab30;}</style><clipPath id="clip-path"><rect class="cls-1" x="1295.24" y="11.49" width="61.91" height="64.39" transform="translate(645.04 1182.42) rotate(-61)"/></clipPath><clipPath id="clip-path-2"><rect class="cls-1" x="325.97" y="12.71" width="64.42" height="61.93" transform="translate(23.73 179.12) rotate(-29)"/></clipPath></defs><g id="Group_467" data-name="Group 467"><g class="cls-3"><g id="Group_466" data-name="Group 466"><g id="Group_461" data-name="Group 461"><path id="Path_519" data-name="Path 519" class="cls-4" d="M1311.88,36.17a9.07,9.07,0,0,1,.47-1.16c1.66-3.5,4.3-5,8-4.63a.62.62,0,0,0,.69-.55v0a13.36,13.36,0,0,1,1.27-4.89,6.57,6.57,0,0,1,4.75-4c.16,0,.39,0,.44-.21s-.14-.3-.26-.42a6.82,6.82,0,0,1-1.93-3.33,17,17,0,0,1,0-5.38,24.84,24.84,0,0,0,.07-3.45.57.57,0,0,0-1-.34l-.64.79c-1.44,2.09-2.54,2.05-5,2.24a8,8,0,0,1-5-1.35c-.35-.22-.48-.13-.49.24a7,7,0,0,1-.3,1.57,6.78,6.78,0,0,1-3.3,4.21,8.48,8.48,0,0,1-4.2,1c-.52,0-.57.05-.39.53a7.59,7.59,0,0,1,.38,3.24,7.29,7.29,0,0,1-4.11,6.21.5.5,0,0,0-.34.62.39.39,0,0,0,.06.11,12.2,12.2,0,0,1,.66,6,30.59,30.59,0,0,1-.77,3.14.65.65,0,0,0,.45.81.66.66,0,0,0,.48,0,22.54,22.54,0,0,1,2.7-1.22,8.94,8.94,0,0,1,4.35-.45,9.38,9.38,0,0,1,2.57.86c.28.13.43.1.52-.21"/></g><g id="Group_462" data-name="Group 462"><path id="Path_520" data-name="Path 520" class="cls-5" d="M1301.52,64.39a6,6,0,0,0,6-6,2.81,2.81,0,0,0,0-.29,5.83,5.83,0,0,0-5.83-5.83h-.25a6.3,6.3,0,0,0-6.09,6.43,5.82,5.82,0,0,0,6,5.64h.13"/></g><g id="Group_463" data-name="Group 463"><path id="Path_521" data-name="Path 521" class="cls-5" d="M1299.22,47.74c0-3.32-2.87-6-5.66-5.88a5.58,5.58,0,0,0-5.45,5.48c-.08,3.08,2.81,6,5.66,5.91,2.59-.09,5.51-2.46,5.45-5.51"/></g><g id="Group_464" data-name="Group 464"><path id="Path_522" data-name="Path 522" class="cls-5" d="M1307.11,49.31a5.11,5.11,0,0,0,5.12-5.1V44c0-3.25-3.2-5.16-5.41-5.14a5.34,5.34,0,0,0-5,5.44,5,5,0,0,0,5,5h.26"/></g><g id="Group_465" data-name="Group 465"><path id="Path_523" data-name="Path 523" class="cls-4" d="M1312.79,63.94a9.71,9.71,0,0,1,1.42.2c4.31.9,6.7,3.44,7.38,7.7a.72.72,0,0,0,.82.61h0a15,15,0,0,1,5.75.09,7.63,7.63,0,0,1,5.71,4.22c.08.17.12.43.36.43s.28-.24.38-.4a7.64,7.64,0,0,1,3.11-3.06,18.56,18.56,0,0,1,5.9-1.53,29.15,29.15,0,0,0,3.81-.86.67.67,0,0,0,.44-.83.7.7,0,0,0-.36-.41l-1-.49c-2.71-1-3-2.28-3.91-5a9.31,9.31,0,0,1,0-6c.15-.45,0-.57-.4-.49a8.5,8.5,0,0,1-7.39-2.44,10.11,10.11,0,0,1-2.35-4.41c-.16-.57-.22-.62-.7-.28a8.45,8.45,0,0,1-3.46,1.29,8.29,8.29,0,0,1-8-2.89c-.3-.33-.51-.38-.89-.11a13.53,13.53,0,0,1-6.42,2.38,31.92,31.92,0,0,1-3.66,0,.75.75,0,0,0-.77.73.81.81,0,0,0,.19.52,25.89,25.89,0,0,1,2.11,2.68,10.37,10.37,0,0,1,1.74,4.73,11.26,11.26,0,0,1-.2,3.12c-.07.34,0,.5.37.51"/></g></g></g></g><g id="See_how_Made_By_is_giving_this_Christmas" data-name="See how Made By is giving this Christmas" class="cls-6"><g class="cls-6"><path class="cls-7" d="M413.76,58.49l-.48-7.66h2.33c1.1,4.93,4.05,8.5,8.49,8.5,3.13,0,5.15-1.5,5.15-4.23s-1.85-4.09-6.73-5.59c-5.86-1.71-9.07-4.57-9.07-9.9,0-6.11,4.67-9.94,11.18-9.94a16.26,16.26,0,0,1,9.51,2.64V39h-2c-1-4.45-3.43-7.26-7.52-7.26-2.73,0-4.53,1.58-4.53,4.09,0,2.86,1.76,4.05,6.29,5.41,5.85,1.8,9.73,4.14,9.73,10.3,0,6.78-5.42,9.9-12,9.9C419.7,61.44,415.83,60.12,413.76,58.49Z"/><path class="cls-7" d="M460.18,46.48v1.1h-14c-.08,5.23,2.82,8.49,6.83,8.49a7.62,7.62,0,0,0,6.55-3.21l.84.53c-1.19,4.84-4.58,8-10.12,8-6.52,0-11.44-4.36-11.44-11.75,0-7.83,5.41-12.85,11.74-12.85S460.18,40.89,460.18,46.48Zm-14-.93h7c0-4.26-.84-6.86-3.21-6.86S446.41,41.46,446.19,45.55Z"/><path class="cls-7" d="M483.77,46.48v1.1h-14c-.09,5.23,2.81,8.49,6.82,8.49a7.65,7.65,0,0,0,6.56-3.21l.83.53c-1.19,4.84-4.58,8-10.12,8-6.51,0-11.44-4.36-11.44-11.75,0-7.83,5.41-12.85,11.75-12.85S483.77,40.89,483.77,46.48Zm-14-.93h7c0-4.26-.83-6.86-3.21-6.86S470,41.46,469.77,45.55Z"/><path class="cls-7" d="M495.47,31.12,493,29.89V28.57l9.2-2h1.37v14.7c1.67-2.11,4.18-4.4,8.18-4.4,4.23,0,6.65,2.42,6.65,7.22V57.57c0,1.41.7,1.58,2.46,1.71V61H508V59.28c1.76-.13,2.34-.3,2.34-1.71V44.72c0-1.94-.66-3.08-2.95-3.08a7.9,7.9,0,0,0-3.74,1v15c0,1.41.57,1.58,2.33,1.71V61H493V59.28c1.76-.13,2.47-.3,2.47-1.71Z"/><path class="cls-7" d="M522.22,49.6c0-7.39,5.1-12.76,12.32-12.76s12.28,4.62,12.28,11.84c0,7.39-5.11,12.76-12.32,12.76S522.22,56.82,522.22,49.6Zm16,1c0-7.21-1-11.92-3.87-11.92-2.64,0-3.48,3.39-3.48,9,0,7.21,1.06,11.92,3.87,11.92C537.36,59.59,538.19,56.2,538.19,50.61Z"/><path class="cls-7" d="M580.17,41.77a3.7,3.7,0,0,0,.31-1.36c0-.93-.79-1.19-2.51-1.41V37.28h7.61V39c-1.54.48-1.85.79-2.24,1.76l-8.67,20.42H572l-5.19-13.6-6.16,13.6h-2.6l-9.24-20.42c-.44-1-.71-1.28-2.25-1.76V37.28H559.8V39c-1.46.22-2.07.57-2.07,1.36a4.33,4.33,0,0,0,.35,1.41L562.26,52l3.3-7.35-1.5-3.91A2.53,2.53,0,0,0,562,39V37.28h13V39c-1.85.22-2.73.39-2.73,1.49a4.31,4.31,0,0,0,.26,1.28l3.65,9.81Z"/><path class="cls-7" d="M621.84,38.51,614,61h-3.34l-8.15-22.49-2.2,16.77c0,.31-.08.92-.08,1,0,2.16.83,2.6,4.22,2.82V61H593.54V59.15c2.55-.13,3.48-.66,3.74-2.64l2.77-21.34c0-2.33-.83-3.08-3.74-3.21V30.11h12.24a10.25,10.25,0,0,0,.7,2.81l6,16.81,5.67-16.81a12.39,12.39,0,0,0,.75-2.81h12V32c-2.9.13-3.7.88-3.7,3.21l2.78,21.34c.3,2.11,1.23,2.51,3.69,2.64V61H619.81V59.15c3.13-.17,4.23-.66,4.23-2.82,0-.13,0-.74-.09-1Z"/><path class="cls-7" d="M658.09,56.16c0,1.06.13,2,1.19,2a4.22,4.22,0,0,0,1.5-.26l.3,1.18a7.87,7.87,0,0,1-5.8,2.38,4.93,4.93,0,0,1-5.07-3.7,7.8,7.8,0,0,1-6.64,3.57c-3.7,0-6.29-2.11-6.29-5.9S640,50,643.08,48.9l7-2.47V42c0-2-.57-3.39-2.29-3.39S645.42,40,645.42,42a15.1,15.1,0,0,0,.39,3.08l-4.88.66a3.08,3.08,0,0,1-2.16-3.08c0-4,4.14-5.85,9.46-5.85,6.16,0,9.86,1.94,9.86,7.66Zm-8,.31V48.33l-2.42.92c-1.54.57-2.55,1.41-2.55,3.92,0,2.24.84,3.91,3,3.91A3.74,3.74,0,0,0,650.08,56.47Z"/><path class="cls-7" d="M675.47,29.89V28.57l9.2-2H686v29.4c0,1.5.09,2.16,1.5,2.2l1.05,0V59.9l-9.33,1.54h-1.49l.13-4.14a8.34,8.34,0,0,1-7.13,4.14c-5.19,0-8.89-4-8.89-11.22,0-8.58,5.19-13.2,11.66-13.2a6.83,6.83,0,0,1,4.36,1.32V31.12ZM670,47.75c0,5.42,1.94,9.11,5.37,9.11a5,5,0,0,0,2.51-.61V44c0-2.94-.84-4.53-3.12-4.53C671.64,39.48,670,42.78,670,47.75Z"/><path class="cls-7" d="M711.46,46.48v1.1h-14c-.08,5.23,2.82,8.49,6.83,8.49a7.62,7.62,0,0,0,6.55-3.21l.84.53c-1.19,4.84-4.58,8-10.12,8-6.52,0-11.44-4.36-11.44-11.75,0-7.83,5.41-12.85,11.75-12.85S711.46,40.89,711.46,46.48Zm-14-.93h7c0-4.26-.84-6.86-3.21-6.86S697.69,41.46,697.47,45.55Z"/><path class="cls-7" d="M721.05,61V59.15c3-.31,3.21-.66,3.21-2.95V34.9c0-2.28-.26-2.64-3.21-2.94V30.11h16c6.83,0,10.83,2.59,10.83,7.7,0,4.44-4,6.69-8.27,7.13,5.85.17,10.25,2.86,10.25,7.7,0,5.68-4.27,8.36-12.37,8.36Zm11.84-28.82v11.7H734c3.74,0,5.68-2,5.68-6s-2.21-5.72-5.73-5.72Zm0,14.08v9.68c0,2.38.79,3,3.08,3h.35c3,0,5.15-2,5.15-6.42,0-4-2.2-6.25-6.65-6.25Z"/><path class="cls-7" d="M770.91,41.81a3.49,3.49,0,0,0,.35-1.27c0-1-.62-1.24-2.91-1.54V37.28h8V39c-1.49.48-1.85.79-2.24,1.76l-10,24.07c-1.62,3.87-3.25,5.9-6.33,5.9a4,4,0,0,1-3.7-1.85V65.75a16.3,16.3,0,0,0,3.43.44c2.47,0,3.74-.7,4.54-2.55l.7-1.54-10-21.34c-.44-1-.71-1.28-2.25-1.76V37.28h14.08V39c-2.33.3-2.9.57-2.9,1.54a3.81,3.81,0,0,0,.31,1.23L766.55,53Z"/><path class="cls-7" d="M795.72,57.57c0,1.41.7,1.58,2.46,1.71V61h-13V59.28c1.76-.13,2.46-.3,2.46-1.71V42.12l-2.42-1.5V39.39l9.15-2.55h1.37Zm-8.27-26.76a4,4,0,0,1,4.31-4,4.08,4.08,0,1,1-4.31,4Z"/><path class="cls-7" d="M800.51,59.2l-.26-6h2c.88,3.61,3.17,6.34,6.61,6.34,2.06,0,3.74-1,3.74-3,0-2.24-1.72-3-4.71-4-5-1.54-7.66-3.61-7.66-8.1,0-4.93,3.78-7.7,9.07-7.7a14,14,0,0,1,7.56,2v5.28H815c-.53-2.91-2.46-5.46-5.54-5.46-1.9,0-3.17,1.06-3.17,2.73,0,1.85,1.32,2.59,4.22,3.61,5.28,1.76,8.14,3.56,8.14,8.36,0,5.15-3.82,8-9.76,8A14.3,14.3,0,0,1,800.51,59.2Z"/><path class="cls-7" d="M834,52a3,3,0,0,0-1.27,2.2,1.21,1.21,0,0,0,1.32,1.28h9.55c5.94,0,8.44,2.55,8.44,6.55,0,5.68-5.45,8.8-13.42,8.8-6.95,0-11.26-1.89-11.26-5.37,0-2.2,2.11-3.25,4.05-3.56a4.63,4.63,0,0,1-2.91-4.4c0-2.86,2-4.71,4.31-5.94a6.68,6.68,0,0,1-4.18-6.34c0-5.28,4.45-8.36,10.52-8.36a13.27,13.27,0,0,1,4.18.62l7.84-.18v2.95h-2l-2.68-.09a5.9,5.9,0,0,1,2.73,5c0,4.89-4.49,7.62-10.39,7.62A15,15,0,0,1,834,52Zm-1.67,10.87a2.55,2.55,0,0,0-.4,1.63c0,2.68,2.78,4.27,6.91,4.27,4,0,7.62-1.06,7.62-3.92,0-1.41-.88-2-2.51-2ZM841.79,45c0-3.35-.88-6.34-2.95-6.34s-2.64,2.15-2.64,5.81,1,6.51,3,6.51S841.79,48.85,841.79,45Z"/><path class="cls-7" d="M863.52,57.57c0,1.41.71,1.58,2.47,1.71V61H853V59.28c1.76-.13,2.46-.3,2.46-1.71V42.12L853,40.62V39.39l9.16-2.55h1.36Zm-8.27-26.76a4,4,0,0,1,4.31-4,4.08,4.08,0,1,1-4.31,4Z"/><path class="cls-7" d="M892.26,39c-1.54.48-1.81.79-2.25,1.76L881,61.18h-2.33L868.54,40.76c-.49-1-.71-1.28-2.25-1.76V37.28h14.09V39c-2.34.3-2.91.57-2.91,1.54a2.86,2.86,0,0,0,.35,1.23L882.49,52l4.27-10.25a2.86,2.86,0,0,0,.35-1.23c0-1-.57-1.24-2.91-1.54V37.28h8.06Z"/><path class="cls-7" d="M904,57.57c0,1.41.71,1.58,2.47,1.71V61h-13V59.28c1.76-.13,2.47-.3,2.47-1.71V42.12l-2.43-1.5V39.39l9.16-2.55H904Zm-8.27-26.76a4,4,0,0,1,4.31-4,4.08,4.08,0,1,1-4.31,4Z"/><path class="cls-7" d="M925.43,44.72c0-1.94-.66-3.08-2.95-3.08a8.22,8.22,0,0,0-3.78,1v15c0,1.41.61,1.58,2.38,1.71V61H908.14V59.28c1.76-.13,2.46-.3,2.46-1.71V42.12l-2.42-1.5V39.39l9.2-2.55h1.5l-.18,4.4c1.67-2.11,4.22-4.4,8.18-4.4,4.27,0,6.69,2.38,6.69,7.22V57.57c0,1.41.71,1.58,2.47,1.71V61H923.1V59.28c1.76-.13,2.33-.3,2.33-1.71Z"/><path class="cls-7" d="M942.94,52a3.05,3.05,0,0,0-1.28,2.2A1.22,1.22,0,0,0,943,55.46h9.55C958.47,55.46,961,58,961,62c0,5.68-5.45,8.8-13.42,8.8-6.95,0-11.26-1.89-11.26-5.37,0-2.2,2.11-3.25,4-3.56a4.64,4.64,0,0,1-2.9-4.4c0-2.86,2-4.71,4.31-5.94a6.68,6.68,0,0,1-4.18-6.34c0-5.28,4.45-8.36,10.52-8.36a13.27,13.27,0,0,1,4.18.62l7.83-.18v2.95h-2l-2.68-.09a5.9,5.9,0,0,1,2.73,5c0,4.89-4.49,7.62-10.39,7.62A15,15,0,0,1,942.94,52Zm-1.67,10.87a2.55,2.55,0,0,0-.4,1.63c0,2.68,2.77,4.27,6.91,4.27,4,0,7.61-1.06,7.61-3.92,0-1.41-.88-2-2.5-2ZM950.69,45c0-3.35-.88-6.34-3-6.34s-2.64,2.15-2.64,5.81,1,6.51,3,6.51S950.69,48.85,950.69,45Z"/><path class="cls-7" d="M979.37,37.28h5.15v2.38h-5.15V54.22c0,2.11.84,3,2.51,3a5.56,5.56,0,0,0,3.17-1.1l.66,1a8.45,8.45,0,0,1-7.66,4.31c-4,0-6.86-2-6.86-7.22V39.66h-2.51V38.21a20.8,20.8,0,0,0,9-6.91h1.71Z"/><path class="cls-7" d="M989,31.12l-2.42-1.23V28.57l9.2-2h1.36v14.7c1.68-2.11,4.19-4.4,8.19-4.4,4.22,0,6.64,2.42,6.64,7.22V57.57c0,1.41.71,1.58,2.47,1.71V61h-12.94V59.28c1.76-.13,2.33-.3,2.33-1.71V44.72c0-1.94-.66-3.08-2.94-3.08a8,8,0,0,0-3.75,1v15c0,1.41.58,1.58,2.34,1.71V61H986.5V59.28c1.76-.13,2.46-.3,2.46-1.71Z"/><path class="cls-7" d="M1026.32,57.57c0,1.41.7,1.58,2.46,1.71V61h-13V59.28c1.76-.13,2.46-.3,2.46-1.71V42.12l-2.42-1.5V39.39l9.16-2.55h1.36Zm-8.27-26.76a4,4,0,0,1,4.31-4,4.08,4.08,0,1,1-4.31,4Z"/><path class="cls-7" d="M1031.11,59.2l-.26-6h2c.87,3.61,3.16,6.34,6.6,6.34,2.06,0,3.74-1,3.74-3,0-2.24-1.72-3-4.71-4-5-1.54-7.66-3.61-7.66-8.1,0-4.93,3.78-7.7,9.07-7.7a14,14,0,0,1,7.57,2v5.28h-1.9c-.53-2.91-2.46-5.46-5.54-5.46-1.89,0-3.17,1.06-3.17,2.73,0,1.85,1.32,2.59,4.22,3.61,5.28,1.76,8.15,3.56,8.15,8.36,0,5.15-3.83,8-9.77,8A14.3,14.3,0,0,1,1031.11,59.2Z"/><path class="cls-7" d="M1085.68,32.26l.13,7.7h-2.16c-1.1-5.23-3.43-8.09-7.52-8.09-5.5,0-7.79,5.85-7.79,13.29,0,8.05,2.82,14,8.23,14,3.65,0,6.47-2.6,8.23-9.29h2.2l-.75,8.76c-2.55,1.8-6.47,2.86-10.78,2.86-10,0-16.24-5.77-16.24-15,0-10.34,7.48-16.72,16.63-16.72A17.59,17.59,0,0,1,1085.68,32.26Z"/><path class="cls-7" d="M1091.39,31.12,1089,29.89V28.57l9.2-2h1.37v14.7c1.67-2.11,4.18-4.4,8.18-4.4,4.23,0,6.65,2.42,6.65,7.22V57.57c0,1.41.7,1.58,2.46,1.71V61h-12.94V59.28c1.76-.13,2.33-.3,2.33-1.71V44.72c0-1.94-.66-3.08-2.94-3.08a7.9,7.9,0,0,0-3.74,1v15c0,1.41.57,1.58,2.33,1.71V61h-12.94V59.28c1.76-.13,2.46-.3,2.46-1.71Z"/><path class="cls-7" d="M1128.75,56.91c0,1.89,1,2.07,3.52,2.37V61h-14.08V59.28c1.76-.13,2.46-.3,2.46-1.71V42.12l-2.42-1.5V39.39l9.2-2.55h1.5l-.18,6.78c1.81-5.15,3.35-6.78,6.12-6.78a3.07,3.07,0,0,1,2.2.75v6.12H1136c-2.77,0-5.23.08-7.26,1.58Z"/><path class="cls-7" d="M1148.86,57.57c0,1.41.7,1.58,2.46,1.71V61h-13V59.28c1.76-.13,2.46-.3,2.46-1.71V42.12l-2.42-1.5V39.39l9.15-2.55h1.37Zm-8.28-26.76a4,4,0,0,1,4.32-4,4.08,4.08,0,1,1-4.32,4Z"/><path class="cls-7" d="M1153.65,59.2l-.26-6h2c.88,3.61,3.17,6.34,6.6,6.34,2.07,0,3.74-1,3.74-3,0-2.24-1.71-3-4.7-4-5-1.54-7.66-3.61-7.66-8.1,0-4.93,3.78-7.7,9.06-7.7a14,14,0,0,1,7.57,2v5.28h-1.89c-.53-2.91-2.46-5.46-5.54-5.46-1.9,0-3.17,1.06-3.17,2.73,0,1.85,1.32,2.59,4.22,3.61,5.28,1.76,8.14,3.56,8.14,8.36,0,5.15-3.82,8-9.77,8A14.26,14.26,0,0,1,1153.65,59.2Z"/><path class="cls-7" d="M1183.88,37.28H1189v2.38h-5.15V54.22c0,2.11.84,3,2.51,3a5.58,5.58,0,0,0,3.17-1.1l.66,1a8.45,8.45,0,0,1-7.66,4.31c-4,0-6.86-2-6.86-7.22V39.66h-2.51V38.21a20.8,20.8,0,0,0,9-6.91h1.71Z"/><path class="cls-7" d="M1222.12,44.59c0-1.9-.62-3-2.64-3a7.79,7.79,0,0,0-3.48,1v15c0,1.41.44,1.58,2.2,1.71V61h-12.54V59.28c1.76-.13,2.2-.3,2.2-1.71v-13c0-1.9-.61-3-2.59-3a7.2,7.2,0,0,0-3.52,1v15c0,1.41.48,1.58,2.24,1.71V61h-12.81V59.28c1.76-.13,2.47-.3,2.47-1.71V42.12l-2.42-1.5V39.39l9.2-2.55h1.49l-.17,4.49a9.24,9.24,0,0,1,8-4.49c3.39,0,5.5,1.37,6.12,4.58a9.62,9.62,0,0,1,8.05-4.58c4.09,0,6.38,2.38,6.38,7V57.57c0,1.41.71,1.58,2.42,1.71V61h-12.76V59.28c1.76-.13,2.2-.3,2.2-1.71Z"/><path class="cls-7" d="M1254.59,56.16c0,1.06.13,2,1.19,2a4.16,4.16,0,0,0,1.49-.26l.31,1.18a7.87,7.87,0,0,1-5.81,2.38,4.92,4.92,0,0,1-5.06-3.7,7.8,7.8,0,0,1-6.64,3.57c-3.7,0-6.29-2.11-6.29-5.9s2.68-5.41,5.8-6.51l7-2.47V42c0-2-.57-3.39-2.29-3.39s-2.37,1.4-2.37,3.47a15.1,15.1,0,0,0,.39,3.08l-4.88.66a3.08,3.08,0,0,1-2.16-3.08c0-4,4.14-5.85,9.46-5.85,6.16,0,9.86,1.94,9.86,7.66Zm-8,.31V48.33l-2.42.92c-1.54.57-2.55,1.41-2.55,3.92,0,2.24.83,3.91,3,3.91A3.74,3.74,0,0,0,1246.58,56.47Z"/><path class="cls-7" d="M1259.08,59.2l-.27-6h2c.88,3.61,3.16,6.34,6.6,6.34,2.06,0,3.74-1,3.74-3,0-2.24-1.72-3-4.71-4-5-1.54-7.66-3.61-7.66-8.1,0-4.93,3.79-7.7,9.07-7.7a14,14,0,0,1,7.57,2v5.28h-1.9c-.52-2.91-2.46-5.46-5.54-5.46-1.89,0-3.17,1.06-3.17,2.73,0,1.85,1.32,2.59,4.22,3.61,5.29,1.76,8.15,3.56,8.15,8.36,0,5.15-3.83,8-9.77,8A14.24,14.24,0,0,1,1259.08,59.2Z"/></g></g><g id="Group_468" data-name="Group 468"><g class="cls-8"><g id="Group_466-2" data-name="Group 466-2"><g id="Group_461-2" data-name="Group 461-2"><path id="Path_519-2" data-name="Path 519-2" class="cls-4" d="M372.5,36.16A9.07,9.07,0,0,0,372,35c-1.66-3.5-4.3-5-8-4.63a.63.63,0,0,1-.7-.56v0a13.46,13.46,0,0,0-1.27-4.9,6.59,6.59,0,0,0-4.76-4c-.16,0-.39,0-.43-.21s.14-.29.25-.42A6.67,6.67,0,0,0,359,17a16.47,16.47,0,0,0,.05-5.38A25,25,0,0,1,359,8.12a.58.58,0,0,1,.59-.55.59.59,0,0,1,.43.22l.63.79c1.45,2.09,2.55,2.05,5.05,2.24a8,8,0,0,0,5-1.34c.34-.23.48-.14.49.23a6.92,6.92,0,0,0,.3,1.57,6.82,6.82,0,0,0,3.3,4.22,8.67,8.67,0,0,0,4.2,1.05c.52,0,.57,0,.39.53a7.59,7.59,0,0,0-.38,3.24,7.29,7.29,0,0,0,4.11,6.21.5.5,0,0,1,.33.62.37.37,0,0,1-.05.11,12.08,12.08,0,0,0-.66,6,30.55,30.55,0,0,0,.76,3.14.64.64,0,0,1-.44.81.69.69,0,0,1-.49,0A24.09,24.09,0,0,0,379.94,36a9.11,9.11,0,0,0-4.36-.45,10.1,10.1,0,0,0-2.57.86c-.28.13-.43.1-.52-.21"/></g><g id="Group_462-2" data-name="Group 462-2"><path id="Path_520-2" data-name="Path 520-2" class="cls-5" d="M382.86,64.39a6,6,0,0,1-6.05-6,2.81,2.81,0,0,1,0-.29,5.84,5.84,0,0,1,5.83-5.84h.25A6.29,6.29,0,0,1,389,58.75a5.81,5.81,0,0,1-6,5.64h-.13"/></g><g id="Group_463-2" data-name="Group 463-2"><path id="Path_521-2" data-name="Path 521-2" class="cls-5" d="M385.17,47.74c0-3.33,2.86-6,5.66-5.88a5.57,5.57,0,0,1,5.45,5.47c.07,3.09-2.81,6-5.67,5.91-2.59-.08-5.51-2.46-5.44-5.5"/></g><g id="Group_464-2" data-name="Group 464-2"><path id="Path_522-2" data-name="Path 522-2" class="cls-5" d="M377.27,49.31a5.13,5.13,0,0,1-5.13-5.11,1.09,1.09,0,0,1,0-.18c0-3.25,3.2-5.16,5.41-5.14a5.34,5.34,0,0,1,5,5.44,5,5,0,0,1-5,5h-.26"/></g><g id="Group_465-2" data-name="Group 465-2"><path id="Path_523-2" data-name="Path 523-2" class="cls-4" d="M371.59,63.94a11.28,11.28,0,0,0-1.42.2c-4.32.91-6.7,3.44-7.39,7.7a.72.72,0,0,1-.82.62h0a15.24,15.24,0,0,0-5.75.08,7.64,7.64,0,0,0-5.71,4.23c-.09.17-.12.43-.36.43s-.28-.24-.39-.4a7.58,7.58,0,0,0-3.1-3.07,18.88,18.88,0,0,0-5.9-1.52,27.78,27.78,0,0,1-3.82-.87.67.67,0,0,1-.44-.83.65.65,0,0,1,.36-.4l1.05-.5c2.71-1,3-2.28,3.91-5a9.21,9.21,0,0,0,0-6c-.14-.45,0-.56.41-.48a7.74,7.74,0,0,0,1.8.09,7.84,7.84,0,0,0,5.59-2.54,10.05,10.05,0,0,0,2.35-4.41c.16-.57.22-.62.7-.28a8.52,8.52,0,0,0,3.46,1.3,8.3,8.3,0,0,0,8-2.89c.3-.33.51-.38.89-.12a13.44,13.44,0,0,0,6.42,2.39,34.56,34.56,0,0,0,3.67,0,.75.75,0,0,1,.77.73.83.83,0,0,1-.19.52,27.42,27.42,0,0,0-2.12,2.68,10.6,10.6,0,0,0-1.74,4.74,11.69,11.69,0,0,0,.2,3.12c.07.34,0,.5-.37.51"/></g></g></g></g><g id="HappyHolidays" class="cls-6"><g class="cls-6"><path class="cls-9" d="M1408.88,22.46a4.94,4.94,0,0,1-2,3,8.14,8.14,0,0,1-4.64,1.44,72.5,72.5,0,0,0-7.45,11.25,14.31,14.31,0,0,0,7.59.36q1.65-2.73,3.54-5.35c1.25-1.76,2.4-3.24,3.45-4.47s2-2.32,2.94-3.29,1.61-1.7,2.12-2.18a4.92,4.92,0,0,1,.9-.77,2.9,2.9,0,0,1,1.88-1.16,1.62,1.62,0,0,1,1.45.52,1.52,1.52,0,0,1,.43,1.24q-.57,3.7-4.29,9.47a35.72,35.72,0,0,1-7.62,8.82,36.18,36.18,0,0,0-2.76,5.69,22.17,22.17,0,0,0-1.1,7.63,11.68,11.68,0,0,0,1.62,5.85,7.66,7.66,0,0,0,4,3.16,8.77,8.77,0,0,0,6.14-.53,16.5,16.5,0,0,1-1.36,5.47,9.38,9.38,0,0,1-2.69,3.58,10.47,10.47,0,0,1-3.41,1.79,10.06,10.06,0,0,1-3.72.4,8.14,8.14,0,0,1-6-3.12,13,13,0,0,1-2.63-6.89,32.67,32.67,0,0,1,.35-8.75,36.19,36.19,0,0,1,2.65-8.89c.21-.6.57-1.42,1.07-2.48a23.78,23.78,0,0,1-7.84-.53c-1.29,2.16-2.43,4-3.44,5.5a51.71,51.71,0,0,1-3.61,4.77,26.34,26.34,0,0,1-4.08,4,16.93,16.93,0,0,1-4.51,2.42,14.2,14.2,0,0,1-12.65-1.66,10.42,10.42,0,0,1-4.07-5.72,13.09,13.09,0,0,1,.41-7.67,11.68,11.68,0,0,1,3.08-4.66,10.38,10.38,0,0,1,4.44-2.52,15,15,0,0,1,4.77-.47,9.3,9.3,0,0,1,4.3,1.35A7.16,7.16,0,0,1,1379,42.1q-3.37,0-4.43,2.11a2.32,2.32,0,0,0,.36,2.87,3.52,3.52,0,0,0,3.35.85q3.15-.76,7.67-7.16-3.29-3.63-.14-9.48a11,11,0,0,0,3.74,4.22,87.43,87.43,0,0,1,7-9.31c-.22-.07-.72-.19-1.51-.37l-1.6-.37-1.44-.33c-.67-.16-1.17-.26-1.5-.31l-1.34-.19a6.71,6.71,0,0,0-1.35-.06l-1.14.09a4.3,4.3,0,0,0-1.13.21,3.67,3.67,0,0,0-.91.45,6.51,6.51,0,0,0-3.24,4,4.91,4.91,0,0,0,1.32,4.79,10.71,10.71,0,0,1-4.72,2,9.27,9.27,0,0,1-4.67-.35,11.72,11.72,0,0,1-3.85-2.28,7.17,7.17,0,0,1-2.31-3.73,9.57,9.57,0,0,1,.06-4.75q2.1-7.66,12.34-7.41a29.67,29.67,0,0,1,7.2,1.05,60,60,0,0,1,7.78,2.85l4.62,2a9.21,9.21,0,0,1,6-3c1.91-.22,3.12.13,3.62,1A1.59,1.59,0,0,1,1408.88,22.46Z"/><path class="cls-9" d="M1424.05,40.45l1.22-2.07c.3-.41,1.42-.5,3.36-.26a7.92,7.92,0,0,1,3.89,1.2,94.67,94.67,0,0,0-4.75,8.7q-1.69,3.58-.71,3.81a.71.71,0,0,0,.44,0,1.89,1.89,0,0,0,.57-.33,5.68,5.68,0,0,0,.58-.53q.28-.29.69-.75l.7-.84c.2-.25.46-.58.77-1l.76-1,.78-1,.72-1c.15-.15.3,0,.44.41a10.2,10.2,0,0,1,.18,4.25,2.88,2.88,0,0,1-.3,1q-5.88,9.32-10.42,9-4-.31-4.66-4.43-3.76,4.66-7.36,4.38a4.41,4.41,0,0,1-3.89-2.6,9.54,9.54,0,0,1-.54-5.57,20.73,20.73,0,0,1,4.46-9.66q3.57-4.4,6.58-5a5.24,5.24,0,0,1,3.67.1A4.83,4.83,0,0,1,1424.05,40.45Zm-9.2,12.46c.63.27,1.41-.15,2.36-1.28a39.58,39.58,0,0,0,3.26-4.64c.51-1,1.26-2.47,2.27-4.29-1.1-.94-2.53-.57-4.28,1.09a13.59,13.59,0,0,0-3.63,5.38C1414.15,51.1,1414.16,52.34,1414.85,52.91Z"/><path class="cls-9" d="M1430.52,70.58c-1.28.28-2.77-.28-4.46-1.65s-2.3-2.82-1.83-4.32q1.57-4.12,3.27-7.94t4.79-10c2-4.13,3.47-7,4.25-8.67.3-.35,1.36-.41,3.16-.19a8.19,8.19,0,0,1,3.74,1.11l-1.07,2.18q2.82-3.28,5.55-3.3a6,6,0,0,1,4.23,1.41,5.13,5.13,0,0,1,1.6,3.91,14.34,14.34,0,0,1-1,5.53,19.38,19.38,0,0,0,2.53-3c.21-.22.39-.06.52.48a4.93,4.93,0,0,1-.89,3.72,20.47,20.47,0,0,1-6.63,7,14,14,0,0,1-4.5,3.72,6.05,6.05,0,0,1-4.67.15,5.12,5.12,0,0,1-2.35-1.67h-.1a3.05,3.05,0,0,1-.67-1.7,1.87,1.87,0,0,1,.62-1.38,6.68,6.68,0,0,1,1.68-1.17,19.4,19.4,0,0,1,2.71-1.09,27.75,27.75,0,0,0,4.64-8.06c.68-1.85.72-2.74.11-2.66q-.75-.18-3.18,2.7a65.59,65.59,0,0,0-5.2,7.34,59.75,59.75,0,0,0-4.36,8.23A57.83,57.83,0,0,0,1430.52,70.58Z"/><path class="cls-9" d="M1453.08,70.58c-1.28.28-2.77-.28-4.46-1.65s-2.3-2.82-1.83-4.32q1.56-4.12,3.27-7.94t4.79-10c2.05-4.13,3.46-7,4.24-8.67.31-.35,1.37-.41,3.17-.19a8.19,8.19,0,0,1,3.74,1.11l-1.08,2.18q2.83-3.28,5.56-3.3a6,6,0,0,1,4.23,1.41,5.16,5.16,0,0,1,1.6,3.91,14.34,14.34,0,0,1-1,5.53,18.56,18.56,0,0,0,2.52-3c.22-.22.39-.06.53.48a4.93,4.93,0,0,1-.89,3.72,20.49,20.49,0,0,1-6.64,7,13.87,13.87,0,0,1-4.49,3.72,6.05,6.05,0,0,1-4.67.15,5.2,5.2,0,0,1-2.36-1.67h-.09a3.15,3.15,0,0,1-.68-1.7,1.88,1.88,0,0,1,.63-1.38,6.68,6.68,0,0,1,1.68-1.17,19.4,19.4,0,0,1,2.71-1.09,28,28,0,0,0,4.64-8.06c.68-1.85.72-2.74.11-2.66q-.75-.18-3.18,2.7a64.32,64.32,0,0,0-5.2,7.34,59.75,59.75,0,0,0-4.36,8.23A57.83,57.83,0,0,0,1453.08,70.58Z"/><path class="cls-9" d="M1481.56,38c.28-.38,1.4-.46,3.39-.24a8.56,8.56,0,0,1,4,1.12s-.67,1.37-1.91,4-2.08,4.51-2.52,5.57c-1.1,2.48-1.26,3.81-.46,4,.62.16,1.39-.33,2.29-1.45a39.93,39.93,0,0,0,3.19-4.88,32.45,32.45,0,0,1,4.18-8.13c.44-.47,1.51-.59,3.2-.35a13.07,13.07,0,0,1,3.91,1c-.72,1.14-1.38,2.31-2,3.51s-1.14,2.31-1.59,3.3-1.35,3.14-2.73,6.46-2.69,6.42-3.94,9.29a35.1,35.1,0,0,1-6,9.91,10.6,10.6,0,0,1-7.82,3.36,9.15,9.15,0,0,1-5.57-1.72,6.41,6.41,0,0,1-2.6-4.82,7.05,7.05,0,0,1,.8-4.07,6.73,6.73,0,0,1,2.63-2.73,6.39,6.39,0,0,1,3.82-.7,8.65,8.65,0,0,1,4.22,1.71,3.32,3.32,0,0,0-1.48,1.37,1.39,1.39,0,0,0-.06,1.39,1.37,1.37,0,0,0,1.29.59,2.52,2.52,0,0,0,1.81-1,11.47,11.47,0,0,0,1.57-2.35c.44-.87,1-2.07,1.69-3.6.15-.35.27-.6.34-.75l.14-.35a8.35,8.35,0,0,1-7,2.46,4.08,4.08,0,0,1-3.5-4,13.63,13.63,0,0,1,1.76-7.65q.52-1.12,2.46-5.17Z"/><path class="cls-9" d="M1551.9,22.46a4.94,4.94,0,0,1-2,3,8.14,8.14,0,0,1-4.64,1.44,73.14,73.14,0,0,0-7.46,11.25,14.35,14.35,0,0,0,7.6.36q1.65-2.73,3.53-5.35c1.26-1.76,2.41-3.24,3.46-4.47s2-2.32,2.94-3.29,1.61-1.7,2.12-2.18a5.47,5.47,0,0,1,.89-.77,2.94,2.94,0,0,1,1.89-1.16,1.62,1.62,0,0,1,1.45.52,1.52,1.52,0,0,1,.43,1.24c-.38,2.47-1.82,5.63-4.29,9.47a35.72,35.72,0,0,1-7.62,8.82A36.18,36.18,0,0,0,1547.4,47a22.17,22.17,0,0,0-1.1,7.63,11.68,11.68,0,0,0,1.62,5.85,7.66,7.66,0,0,0,4,3.16,8.77,8.77,0,0,0,6.14-.53,16.5,16.5,0,0,1-1.36,5.47,9.48,9.48,0,0,1-2.69,3.58,10.47,10.47,0,0,1-3.41,1.79,10.06,10.06,0,0,1-3.72.4,8.14,8.14,0,0,1-6-3.12,13,13,0,0,1-2.63-6.89,33.07,33.07,0,0,1,.34-8.75,36.65,36.65,0,0,1,2.66-8.89c.21-.6.57-1.42,1.07-2.48a23.78,23.78,0,0,1-7.84-.53c-1.29,2.16-2.43,4-3.44,5.5a51.71,51.71,0,0,1-3.61,4.77,26.34,26.34,0,0,1-4.08,4,16.93,16.93,0,0,1-4.51,2.42,14.2,14.2,0,0,1-12.65-1.66,10.42,10.42,0,0,1-4.07-5.72,13,13,0,0,1,.41-7.67,11.68,11.68,0,0,1,3.08-4.66,10.38,10.38,0,0,1,4.44-2.52,14.92,14.92,0,0,1,4.77-.47,9.3,9.3,0,0,1,4.3,1.35A7.16,7.16,0,0,1,1522,42.1q-3.37,0-4.43,2.11a2.32,2.32,0,0,0,.36,2.87,3.52,3.52,0,0,0,3.35.85q3.15-.76,7.67-7.16-3.29-3.63-.14-9.48a10.87,10.87,0,0,0,3.74,4.22,89,89,0,0,1,7-9.31c-.21-.07-.71-.19-1.5-.37l-1.6-.37-1.44-.33c-.67-.16-1.17-.26-1.5-.31l-1.34-.19a6.71,6.71,0,0,0-1.35-.06l-1.14.09a4.3,4.3,0,0,0-1.13.21,3.5,3.5,0,0,0-.91.45,6.51,6.51,0,0,0-3.24,4,4.91,4.91,0,0,0,1.32,4.79,10.71,10.71,0,0,1-4.72,2,9.27,9.27,0,0,1-4.67-.35,11.86,11.86,0,0,1-3.86-2.28,7.21,7.21,0,0,1-2.3-3.73,9.57,9.57,0,0,1,.06-4.75q2.1-7.66,12.34-7.41a29.67,29.67,0,0,1,7.2,1.05,60,60,0,0,1,7.78,2.85l4.62,2a9.21,9.21,0,0,1,6-3c1.91-.22,3.12.13,3.62,1A1.59,1.59,0,0,1,1551.9,22.46Z"/><path class="cls-9" d="M1559.31,37.58a8.19,8.19,0,0,1,4.18.27,5.51,5.51,0,0,1,2.73-.64,5.1,5.1,0,0,1,5.22,3.62q1.45,3.7-.24,9.3l-.27.9a10.41,10.41,0,0,0,3-2.83c.28-.27.53-.07.76.62a3.1,3.1,0,0,1-.18,2.71,7.32,7.32,0,0,1-5.88,3.86q-4.22,5.91-10.88,5a9.23,9.23,0,0,1-4.67-2,7.5,7.5,0,0,1-2.38-3.74,12.83,12.83,0,0,1-.36-4.57,14.67,14.67,0,0,1,1.26-4.69,16.69,16.69,0,0,1,3.43-5.11A8.9,8.9,0,0,1,1559.31,37.58Zm0,16.68a3.85,3.85,0,0,0,3.14-1.12,9.62,9.62,0,0,1-2.91-6.4,11.93,11.93,0,0,1-.09-2,17.17,17.17,0,0,0-1.76,4.17,7.43,7.43,0,0,0-.18,3.58A2.08,2.08,0,0,0,1559.36,54.26Zm5.69-12.69c-.57.15-1,.72-1.18,1.71a7.52,7.52,0,0,0,.09,3.32,5.68,5.68,0,0,0,1.55,2.91,21.16,21.16,0,0,0,.9-2.2,15.17,15.17,0,0,0,.49-3.18,3.46,3.46,0,0,0-.44-2A1.26,1.26,0,0,0,1565.05,41.57Z"/><path class="cls-9" d="M1582.7,29.41c.27-.38,1.39-.45,3.35-.2A8.36,8.36,0,0,1,1590,30.4q-1.74,2.87-7.59,14.89-2.64,5.41-1.56,5.74a1.06,1.06,0,0,0,.56-.07,2.56,2.56,0,0,0,.74-.47,10.33,10.33,0,0,0,.74-.74c.23-.25.52-.59.87-1s.65-.78.9-1.1l1-1.25,1-1.24c.13-.12.25,0,.37.37a8.85,8.85,0,0,1,.19,4.18,3.78,3.78,0,0,1-.37,1.37,31.66,31.66,0,0,1-5.74,7.11,6.89,6.89,0,0,1-6,1.82,4.34,4.34,0,0,1-3.8-3.88c-.37-2.2.23-4.93,1.83-8.19Q1581.09,32.94,1582.7,29.41Z"/><path class="cls-9" d="M1590.16,38.38c.3-.41,1.42-.5,3.36-.26a7.88,7.88,0,0,1,3.89,1.2,94.67,94.67,0,0,0-4.75,8.7q-1.7,3.58-.71,3.81a.71.71,0,0,0,.44,0,2.06,2.06,0,0,0,.58-.33,4.14,4.14,0,0,0,.58-.53c.19-.19.41-.44.68-.75l.71-.84q.32-.37.78-1c.32-.41.57-.75.75-1s.44-.61.77-1l.72-1c.15-.15.3,0,.44.41a10.2,10.2,0,0,1,.18,4.25,3.14,3.14,0,0,1-.28,1q-5.86,9.32-10.44,9a5.13,5.13,0,0,1-2.94-1.08,4.38,4.38,0,0,1-1.5-2.3,9.73,9.73,0,0,1-.31-2.71,8.87,8.87,0,0,1,.44-2.52Q1585.08,46.5,1590.16,38.38Zm2.55-5.51a3.74,3.74,0,0,1,1.61-2.46,4.44,4.44,0,0,1,2.9-.86,2.9,2.9,0,0,1,2.33,1.24,3.38,3.38,0,0,1,.54,2.7,4.13,4.13,0,0,1-1.72,2.52,4.47,4.47,0,0,1-2.89.86,3,3,0,0,1-2.33-1.29A3.19,3.19,0,0,1,1592.71,32.87Z"/><path class="cls-9" d="M1617.61,31.29c.27-.38,1.38-.45,3.32-.19a8.21,8.21,0,0,1,3.9,1.18q-2.19,3.63-7.62,14.62a25.55,25.55,0,0,0-1.49,3.51c-.06.35,0,.57.28.66.72.16,2.35-1.4,4.89-4.66.27-.35.48-.6.62-.75s.24,0,.36.34a9.78,9.78,0,0,1,.19,4.18,3.37,3.37,0,0,1-.37,1.35,29.77,29.77,0,0,1-5.52,6.92,6.49,6.49,0,0,1-5.91,1.37,4.4,4.4,0,0,1-3.42-4.43q-3.63,5-7.11,4.56a4.38,4.38,0,0,1-3.88-2.6,9.63,9.63,0,0,1-.53-5.57,20.75,20.75,0,0,1,4.47-9.66c2.37-2.93,4.57-4.6,6.57-5a14.08,14.08,0,0,1,2.17-.22,4.11,4.11,0,0,1,2.44.84,4.91,4.91,0,0,1,1.84,2.52Q1615.54,35,1617.61,31.29Zm-6.06,11.31q-1.75-1.31-4.36,1.21a13.63,13.63,0,0,0-3.61,5.4c-.65,1.93-.64,3.16.05,3.7q.94.36,2.37-1.23a27.1,27.1,0,0,0,3-4.19Q1609.66,46.14,1611.55,42.6Z"/><path class="cls-9" d="M1636.68,40.45l1.21-2.07c.31-.41,1.43-.5,3.36-.26a7.84,7.84,0,0,1,3.89,1.2q-3.44,5.79-4.75,8.7-1.7,3.58-.71,3.81a.74.74,0,0,0,.45,0,2,2,0,0,0,.56-.33,5.76,5.76,0,0,0,.59-.53c.19-.19.42-.44.68-.75l.71-.84.76-1c.32-.41.57-.75.76-1l.78-1,.73-1c.15-.15.29,0,.43.41a10.2,10.2,0,0,1,.18,4.25,3.12,3.12,0,0,1-.29,1q-5.88,9.32-10.42,9a4.68,4.68,0,0,1-4.66-4.43q-3.76,4.66-7.37,4.38a4.41,4.41,0,0,1-3.89-2.6,9.54,9.54,0,0,1-.54-5.57,20.75,20.75,0,0,1,4.47-9.66c2.37-2.93,4.57-4.6,6.57-5a5.24,5.24,0,0,1,3.67.1A4.81,4.81,0,0,1,1636.68,40.45Zm-9.21,12.46c.63.27,1.42-.15,2.37-1.28A40.82,40.82,0,0,0,1633.1,47q.75-1.56,2.27-4.29c-1.1-.94-2.53-.57-4.28,1.09a13.62,13.62,0,0,0-3.64,5.38C1626.78,51.1,1626.79,52.34,1627.47,52.91Z"/><path class="cls-9" d="M1649.07,38c.27-.38,1.4-.46,3.38-.24a8.56,8.56,0,0,1,4,1.12s-.66,1.37-1.9,4-2.08,4.51-2.53,5.57q-1.65,3.72-.46,4c.63.16,1.4-.33,2.3-1.45a39.93,39.93,0,0,0,3.19-4.88,32.12,32.12,0,0,1,4.18-8.13c.44-.47,1.51-.59,3.2-.35a13.15,13.15,0,0,1,3.91,1c-.72,1.14-1.39,2.31-2,3.51s-1.14,2.31-1.58,3.3-1.35,3.14-2.73,6.46-2.7,6.42-4,9.29a34.88,34.88,0,0,1-5.94,9.91,10.61,10.61,0,0,1-7.83,3.36,9.15,9.15,0,0,1-5.56-1.72A6.42,6.42,0,0,1,1636.1,68a7.14,7.14,0,0,1,.81-4.07,6.71,6.71,0,0,1,2.62-2.73,6.42,6.42,0,0,1,3.82-.7,8.68,8.68,0,0,1,4.23,1.71,3.26,3.26,0,0,0-1.48,1.37A1.39,1.39,0,0,0,1646,65a1.37,1.37,0,0,0,1.28.59,2.52,2.52,0,0,0,1.82-1,11.89,11.89,0,0,0,1.57-2.35c.43-.87,1-2.07,1.69-3.6.15-.35.26-.6.34-.75l.14-.35a8.35,8.35,0,0,1-7,2.46,4.07,4.07,0,0,1-3.5-4,13.62,13.62,0,0,1,1.75-7.65l2.47-5.17C1647.89,40.44,1648.72,38.73,1649.07,38Z"/><path class="cls-9" d="M1669.58,44.44a5.91,5.91,0,0,1,1.61.18q2.11-1.92,4.5-4.4a5.48,5.48,0,0,1,.8-2.38,3,3,0,0,1,1.37-1.22,3.31,3.31,0,0,1,1.45-.26,2,2,0,0,1,1.17.42q1.27,1.26-.59,3.48c.44,1.17.82,2.28,1.12,3.33a21.79,21.79,0,0,1,1,7.09,31,31,0,0,0,2.11-2.48c.31-.3.58-.07.8.72a3.53,3.53,0,0,1-.18,2.66A26.22,26.22,0,0,1,1678.9,58a11.34,11.34,0,0,1-7,2.31,8.72,8.72,0,0,1-6.19-2.27,7.56,7.56,0,0,1-2.51-5.49,8.23,8.23,0,0,1,1.66-5.54A5.93,5.93,0,0,1,1669.58,44.44Zm5.33,4.38a2.82,2.82,0,0,0-3.06.16,2,2,0,0,0-.75,2.32,1.66,1.66,0,0,0,1.59,1.25c.85.09,1.73-.47,2.63-1.66q1.35-2.2.71-6.82l-.67.68-.78.78-.66.65A3.87,3.87,0,0,1,1674.91,48.82Z"/></g></g><g id="HappyHolidays-2" class="cls-6"><g class="cls-6"><path class="cls-9" d="M52.88,22.46a4.94,4.94,0,0,1-2,3,8.14,8.14,0,0,1-4.64,1.44,72.5,72.5,0,0,0-7.45,11.25,14.31,14.31,0,0,0,7.59.36q1.65-2.73,3.54-5.35c1.25-1.76,2.4-3.24,3.45-4.47s2-2.32,2.94-3.29,1.61-1.7,2.12-2.18a5.47,5.47,0,0,1,.89-.77,2.94,2.94,0,0,1,1.89-1.16,1.62,1.62,0,0,1,1.45.52A1.52,1.52,0,0,1,63.05,23q-.57,3.7-4.29,9.47a35.72,35.72,0,0,1-7.62,8.82A36.18,36.18,0,0,0,48.38,47a22.17,22.17,0,0,0-1.1,7.63,11.68,11.68,0,0,0,1.62,5.85,7.66,7.66,0,0,0,4,3.16,8.77,8.77,0,0,0,6.14-.53,16.5,16.5,0,0,1-1.36,5.47A9.38,9.38,0,0,1,55,72.15a10.47,10.47,0,0,1-3.41,1.79,10.06,10.06,0,0,1-3.72.4,8.14,8.14,0,0,1-6-3.12,13,13,0,0,1-2.63-6.89,32.67,32.67,0,0,1,.35-8.75,36.19,36.19,0,0,1,2.65-8.89c.21-.6.57-1.42,1.07-2.48a23.78,23.78,0,0,1-7.84-.53q-1.93,3.24-3.43,5.5A53.79,53.79,0,0,1,28.44,54a26.34,26.34,0,0,1-4.08,4,16.93,16.93,0,0,1-4.51,2.42,13.26,13.26,0,0,1-5.22.78A13.32,13.32,0,0,1,7.2,58.73,10.42,10.42,0,0,1,3.13,53a13.09,13.09,0,0,1,.41-7.67,11.68,11.68,0,0,1,3.08-4.66,10.38,10.38,0,0,1,4.44-2.52,15,15,0,0,1,4.77-.47A9.3,9.3,0,0,1,20.13,39,7.16,7.16,0,0,1,23,42.1q-3.37,0-4.43,2.11a2.32,2.32,0,0,0,.36,2.87,3.52,3.52,0,0,0,3.35.85q3.15-.76,7.67-7.16-3.28-3.63-.14-9.48a11,11,0,0,0,3.74,4.22,87.43,87.43,0,0,1,7-9.31c-.22-.07-.72-.19-1.51-.37l-1.6-.37L36,25.13c-.67-.16-1.17-.26-1.5-.31l-1.34-.19a6.71,6.71,0,0,0-1.35-.06l-1.14.09a4.3,4.3,0,0,0-1.13.21,3.67,3.67,0,0,0-.91.45,6.51,6.51,0,0,0-3.24,4,4.91,4.91,0,0,0,1.32,4.79,10.71,10.71,0,0,1-4.72,2,9.27,9.27,0,0,1-4.67-.35,11.72,11.72,0,0,1-3.85-2.28,7.17,7.17,0,0,1-2.31-3.73A9.57,9.57,0,0,1,11.21,25q2.1-7.66,12.34-7.41a29.67,29.67,0,0,1,7.2,1.05,60,60,0,0,1,7.78,2.85l4.62,2a9.21,9.21,0,0,1,6-3c1.91-.22,3.12.13,3.62,1A1.59,1.59,0,0,1,52.88,22.46Z"/><path class="cls-9" d="M68.05,40.45l1.22-2.07c.3-.41,1.42-.5,3.36-.26a7.92,7.92,0,0,1,3.89,1.2A94.67,94.67,0,0,0,71.77,48q-1.69,3.58-.71,3.81a.71.71,0,0,0,.44,0,1.89,1.89,0,0,0,.57-.33,5.68,5.68,0,0,0,.58-.53q.28-.29.69-.75l.7-.84c.2-.25.46-.58.77-1l.76-1,.78-1,.72-1c.15-.15.3,0,.44.41A10.2,10.2,0,0,1,77.69,50a2.88,2.88,0,0,1-.3,1Q71.51,60.3,67,60q-4-.31-4.66-4.43Q58.54,60.24,55,60a4.41,4.41,0,0,1-3.89-2.6,9.54,9.54,0,0,1-.54-5.57A20.63,20.63,0,0,1,55,42.12q3.57-4.4,6.58-5a5.24,5.24,0,0,1,3.67.1A4.83,4.83,0,0,1,68.05,40.45Zm-9.2,12.46c.63.27,1.41-.15,2.36-1.28A39.58,39.58,0,0,0,64.47,47c.51-1,1.26-2.47,2.27-4.29-1.1-.94-2.53-.57-4.28,1.09a13.59,13.59,0,0,0-3.63,5.38C58.15,51.1,58.16,52.34,58.85,52.91Z"/><path class="cls-9" d="M74.52,70.58c-1.28.28-2.77-.28-4.46-1.65s-2.3-2.82-1.83-4.32q1.58-4.12,3.27-7.94t4.79-10c2-4.13,3.47-7,4.25-8.67.3-.35,1.36-.41,3.16-.19a8.19,8.19,0,0,1,3.74,1.11l-1.08,2.18q2.83-3.28,5.56-3.3a6,6,0,0,1,4.23,1.41,5.13,5.13,0,0,1,1.6,3.91,14.34,14.34,0,0,1-1,5.53,19.38,19.38,0,0,0,2.53-3c.21-.22.39-.06.52.48a4.93,4.93,0,0,1-.89,3.72,20.47,20.47,0,0,1-6.63,7,13.9,13.9,0,0,1-4.5,3.72,6.05,6.05,0,0,1-4.67.15A5.12,5.12,0,0,1,80.77,59h-.1a3.05,3.05,0,0,1-.67-1.7,1.83,1.83,0,0,1,.62-1.38,6.68,6.68,0,0,1,1.68-1.17A19.4,19.4,0,0,1,85,53.67a27.75,27.75,0,0,0,4.64-8.06c.68-1.85.72-2.74.11-2.66q-.75-.18-3.18,2.7A65.59,65.59,0,0,0,81.38,53,59.75,59.75,0,0,0,77,61.22,57.83,57.83,0,0,0,74.52,70.58Z"/><path class="cls-9" d="M97.08,70.58c-1.28.28-2.77-.28-4.46-1.65s-2.3-2.82-1.83-4.32q1.56-4.12,3.27-7.94t4.79-10c2.05-4.13,3.46-7,4.24-8.67.31-.35,1.37-.41,3.17-.19A8.19,8.19,0,0,1,110,38.93l-1.08,2.18q2.83-3.28,5.56-3.3a6,6,0,0,1,4.23,1.41,5.16,5.16,0,0,1,1.6,3.91,14.34,14.34,0,0,1-1,5.53,18.56,18.56,0,0,0,2.52-3c.22-.22.39-.06.53.48a4.93,4.93,0,0,1-.89,3.72,20.49,20.49,0,0,1-6.64,7,14,14,0,0,1-4.49,3.72,6.05,6.05,0,0,1-4.67.15A5.2,5.2,0,0,1,103.32,59h-.09a3.05,3.05,0,0,1-.67-1.7,1.83,1.83,0,0,1,.62-1.38,6.68,6.68,0,0,1,1.68-1.17,19.4,19.4,0,0,1,2.71-1.09,27.75,27.75,0,0,0,4.64-8.06c.68-1.85.72-2.74.11-2.66q-.75-.18-3.18,2.7a64.32,64.32,0,0,0-5.2,7.34,59.75,59.75,0,0,0-4.36,8.23A57.83,57.83,0,0,0,97.08,70.58Z"/><path class="cls-9" d="M125.56,38q.42-.57,3.39-.24a8.56,8.56,0,0,1,4,1.12s-.67,1.37-1.91,4-2.08,4.51-2.52,5.57c-1.1,2.48-1.26,3.81-.46,4,.62.16,1.39-.33,2.29-1.45a39.93,39.93,0,0,0,3.19-4.88A32.45,32.45,0,0,1,137.68,38c.44-.47,1.51-.59,3.2-.35a13.07,13.07,0,0,1,3.91,1c-.72,1.14-1.38,2.31-2,3.51s-1.14,2.31-1.59,3.3-1.35,3.14-2.73,6.46-2.69,6.42-3.94,9.29a35.1,35.1,0,0,1-5.95,9.91,10.6,10.6,0,0,1-7.82,3.36,9.15,9.15,0,0,1-5.57-1.72A6.41,6.41,0,0,1,112.6,68a7.05,7.05,0,0,1,.8-4.07A6.73,6.73,0,0,1,116,61.19a6.39,6.39,0,0,1,3.82-.7,8.65,8.65,0,0,1,4.22,1.71,3.32,3.32,0,0,0-1.48,1.37,1.39,1.39,0,0,0-.06,1.39,1.37,1.37,0,0,0,1.29.59,2.52,2.52,0,0,0,1.81-1,11.47,11.47,0,0,0,1.57-2.35c.44-.87,1-2.07,1.69-3.6.15-.35.27-.6.34-.75l.14-.35a8.35,8.35,0,0,1-7,2.46,4.08,4.08,0,0,1-3.5-4,13.55,13.55,0,0,1,1.76-7.65q.53-1.12,2.46-5.17Z"/><path class="cls-9" d="M195.9,22.46a4.94,4.94,0,0,1-2,3,8.14,8.14,0,0,1-4.64,1.44,73.14,73.14,0,0,0-7.46,11.25,14.35,14.35,0,0,0,7.6.36q1.65-2.73,3.54-5.35c1.25-1.76,2.4-3.24,3.45-4.47s2-2.32,2.94-3.29,1.61-1.7,2.12-2.18a5.47,5.47,0,0,1,.89-.77,2.94,2.94,0,0,1,1.89-1.16,1.62,1.62,0,0,1,1.45.52,1.52,1.52,0,0,1,.43,1.24c-.38,2.47-1.82,5.63-4.29,9.47a35.72,35.72,0,0,1-7.62,8.82A36.18,36.18,0,0,0,191.4,47a22.17,22.17,0,0,0-1.1,7.63,11.68,11.68,0,0,0,1.62,5.85,7.66,7.66,0,0,0,4,3.16,8.77,8.77,0,0,0,6.14-.53,16.5,16.5,0,0,1-1.36,5.47,9.38,9.38,0,0,1-2.69,3.58,10.47,10.47,0,0,1-3.41,1.79,10.06,10.06,0,0,1-3.72.4,8.14,8.14,0,0,1-6-3.12,13,13,0,0,1-2.63-6.89,32.67,32.67,0,0,1,.35-8.75,36.19,36.19,0,0,1,2.65-8.89c.21-.6.57-1.42,1.07-2.48a23.78,23.78,0,0,1-7.84-.53c-1.29,2.16-2.43,4-3.44,5.5A51.71,51.71,0,0,1,171.46,54a26.34,26.34,0,0,1-4.08,4,16.93,16.93,0,0,1-4.51,2.42,14.21,14.21,0,0,1-12.65-1.66A10.42,10.42,0,0,1,146.15,53a13,13,0,0,1,.41-7.67,11.68,11.68,0,0,1,3.08-4.66,10.38,10.38,0,0,1,4.44-2.52,14.92,14.92,0,0,1,4.77-.47,9.3,9.3,0,0,1,4.3,1.35A7.16,7.16,0,0,1,166,42.1q-3.37,0-4.43,2.11a2.32,2.32,0,0,0,.36,2.87,3.52,3.52,0,0,0,3.35.85q3.15-.76,7.67-7.16-3.28-3.63-.14-9.48a10.87,10.87,0,0,0,3.74,4.22,89,89,0,0,1,7-9.31c-.21-.07-.71-.19-1.5-.37l-1.61-.37L179,25.13c-.67-.16-1.17-.26-1.5-.31l-1.34-.19a6.71,6.71,0,0,0-1.35-.06l-1.14.09a4.3,4.3,0,0,0-1.13.21,3.5,3.5,0,0,0-.91.45,6.51,6.51,0,0,0-3.24,4,4.91,4.91,0,0,0,1.32,4.79,10.71,10.71,0,0,1-4.72,2,9.27,9.27,0,0,1-4.67-.35,11.86,11.86,0,0,1-3.86-2.28,7.21,7.21,0,0,1-2.3-3.73,9.57,9.57,0,0,1,.06-4.75q2.1-7.66,12.34-7.41a29.67,29.67,0,0,1,7.2,1.05,60,60,0,0,1,7.78,2.85l4.62,2a9.21,9.21,0,0,1,6-3c1.91-.22,3.12.13,3.62,1A1.59,1.59,0,0,1,195.9,22.46Z"/><path class="cls-9" d="M203.31,37.58a8.19,8.19,0,0,1,4.18.27,5.51,5.51,0,0,1,2.73-.64,5.1,5.1,0,0,1,5.22,3.62q1.45,3.7-.24,9.3l-.27.9a10.41,10.41,0,0,0,3-2.83c.28-.27.53-.07.76.62a3.1,3.1,0,0,1-.18,2.71,7.32,7.32,0,0,1-5.88,3.86q-4.22,5.91-10.88,5a9.23,9.23,0,0,1-4.67-2,7.5,7.5,0,0,1-2.38-3.74,12.83,12.83,0,0,1-.36-4.57,14.67,14.67,0,0,1,1.26-4.69A16.51,16.51,0,0,1,199,40.23,8.9,8.9,0,0,1,203.31,37.58Zm.05,16.68a3.85,3.85,0,0,0,3.14-1.12,9.62,9.62,0,0,1-2.91-6.4,11.93,11.93,0,0,1-.09-2,17.17,17.17,0,0,0-1.76,4.17,7.43,7.43,0,0,0-.18,3.58A2.09,2.09,0,0,0,203.36,54.26Zm5.69-12.69c-.57.15-1,.72-1.18,1.71A7.52,7.52,0,0,0,208,46.6a5.68,5.68,0,0,0,1.55,2.91,21.16,21.16,0,0,0,.9-2.2,15.17,15.17,0,0,0,.49-3.18,3.46,3.46,0,0,0-.44-2A1.26,1.26,0,0,0,209.05,41.57Z"/><path class="cls-9" d="M226.7,29.41c.28-.38,1.39-.45,3.35-.2A8.46,8.46,0,0,1,234,30.4q-1.75,2.87-7.6,14.89-2.64,5.41-1.56,5.74a1.06,1.06,0,0,0,.56-.07,2.4,2.4,0,0,0,.73-.47,8.75,8.75,0,0,0,.75-.74c.23-.25.52-.59.87-1s.65-.78.9-1.1l1-1.25,1-1.24c.12-.12.24,0,.36.37a8.85,8.85,0,0,1,.19,4.18,3.78,3.78,0,0,1-.37,1.37A31.39,31.39,0,0,1,225,58.18,6.9,6.9,0,0,1,219,60a4.34,4.34,0,0,1-3.8-3.88c-.37-2.2.23-4.93,1.83-8.19Q225.09,32.94,226.7,29.41Z"/><path class="cls-9" d="M234.16,38.38c.3-.41,1.42-.5,3.36-.26a7.92,7.92,0,0,1,3.89,1.2,94.67,94.67,0,0,0-4.75,8.7Q235,51.6,236,51.83a.74.74,0,0,0,.45,0,2.17,2.17,0,0,0,.57-.33,4.14,4.14,0,0,0,.58-.53c.19-.19.41-.44.68-.75l.71-.84q.31-.37.78-1c.32-.41.56-.75.75-1s.44-.61.77-1l.72-1c.15-.15.3,0,.44.41a10.2,10.2,0,0,1,.18,4.25,3.14,3.14,0,0,1-.28,1q-5.87,9.32-10.44,9a5.13,5.13,0,0,1-2.94-1.08,4.38,4.38,0,0,1-1.5-2.3,9.73,9.73,0,0,1-.31-2.71,8.87,8.87,0,0,1,.44-2.52Q229.08,46.5,234.16,38.38Zm2.54-5.51a3.79,3.79,0,0,1,1.62-2.46,4.45,4.45,0,0,1,2.91-.86,2.93,2.93,0,0,1,2.33,1.24,3.42,3.42,0,0,1,.53,2.7A4.13,4.13,0,0,1,242.37,36a4.47,4.47,0,0,1-2.89.86,3,3,0,0,1-2.33-1.29A3.23,3.23,0,0,1,236.7,32.87Z"/><path class="cls-9" d="M261.6,31.29c.28-.38,1.39-.45,3.33-.19a8.21,8.21,0,0,1,3.9,1.18q-2.19,3.63-7.61,14.62a24.92,24.92,0,0,0-1.5,3.51c-.06.35,0,.57.28.66.72.16,2.35-1.4,4.89-4.66.27-.35.48-.6.62-.75s.24,0,.36.34a9.62,9.62,0,0,1,.19,4.18,3.37,3.37,0,0,1-.37,1.35,29.77,29.77,0,0,1-5.52,6.92,6.5,6.5,0,0,1-5.91,1.37,4.4,4.4,0,0,1-3.42-4.43q-3.63,5-7.11,4.56a4.38,4.38,0,0,1-3.88-2.6,9.63,9.63,0,0,1-.53-5.57,20.83,20.83,0,0,1,4.46-9.66q3.57-4.4,6.58-5a14.08,14.08,0,0,1,2.17-.22,4.11,4.11,0,0,1,2.44.84,4.91,4.91,0,0,1,1.84,2.52Q259.54,35,261.6,31.29ZM255.55,42.6q-1.76-1.31-4.36,1.21a13.63,13.63,0,0,0-3.61,5.4c-.65,1.93-.64,3.16,0,3.7q.94.36,2.37-1.23a27.1,27.1,0,0,0,3-4.19Q253.66,46.14,255.55,42.6Z"/><path class="cls-9" d="M280.68,40.45l1.21-2.07c.31-.41,1.43-.5,3.36-.26a7.84,7.84,0,0,1,3.89,1.2q-3.43,5.79-4.75,8.7-1.69,3.58-.71,3.81a.74.74,0,0,0,.45,0,1.86,1.86,0,0,0,.56-.33,5.76,5.76,0,0,0,.59-.53q.29-.29.69-.75l.7-.84.76-1c.32-.41.57-.75.76-1l.78-1,.72-1c.16-.15.3,0,.44.41a10.2,10.2,0,0,1,.18,4.25,3.12,3.12,0,0,1-.29,1q-5.88,9.32-10.42,9a4.68,4.68,0,0,1-4.66-4.43q-3.76,4.66-7.37,4.38a4.41,4.41,0,0,1-3.89-2.6,9.54,9.54,0,0,1-.54-5.57,20.75,20.75,0,0,1,4.47-9.66c2.37-2.93,4.57-4.6,6.57-5a5.24,5.24,0,0,1,3.67.1A4.81,4.81,0,0,1,280.68,40.45Zm-9.21,12.46c.63.27,1.42-.15,2.37-1.28A40.82,40.82,0,0,0,277.1,47q.75-1.56,2.27-4.29c-1.1-.94-2.53-.57-4.28,1.09a13.62,13.62,0,0,0-3.64,5.38C270.78,51.1,270.78,52.34,271.47,52.91Z"/><path class="cls-9" d="M293.07,38c.27-.38,1.4-.46,3.38-.24a8.56,8.56,0,0,1,4,1.12s-.66,1.37-1.9,4-2.08,4.51-2.53,5.57q-1.65,3.72-.46,4c.63.16,1.4-.33,2.3-1.45A41.15,41.15,0,0,0,301,46.14,32.12,32.12,0,0,1,305.19,38c.44-.47,1.51-.59,3.2-.35a13.15,13.15,0,0,1,3.91,1c-.72,1.14-1.39,2.31-2,3.51s-1.14,2.31-1.58,3.3S307.37,48.65,306,52s-2.69,6.42-3.95,9.29a34.88,34.88,0,0,1-5.94,9.91,10.61,10.61,0,0,1-7.83,3.36,9.12,9.12,0,0,1-5.56-1.72A6.42,6.42,0,0,1,280.1,68a7.14,7.14,0,0,1,.81-4.07,6.71,6.71,0,0,1,2.62-2.73,6.42,6.42,0,0,1,3.82-.7,8.68,8.68,0,0,1,4.23,1.71,3.26,3.26,0,0,0-1.48,1.37A1.39,1.39,0,0,0,290,65a1.37,1.37,0,0,0,1.28.59,2.54,2.54,0,0,0,1.82-1,11.89,11.89,0,0,0,1.57-2.35c.44-.87,1-2.07,1.69-3.6.15-.35.26-.6.34-.75l.14-.35a8.35,8.35,0,0,1-7,2.46,4.07,4.07,0,0,1-3.5-4,13.62,13.62,0,0,1,1.75-7.65l2.47-5.17C291.89,40.44,292.72,38.73,293.07,38Z"/><path class="cls-9" d="M313.58,44.44a5.91,5.91,0,0,1,1.61.18q2.12-1.92,4.5-4.4a5.48,5.48,0,0,1,.8-2.38,3,3,0,0,1,1.37-1.22,3.28,3.28,0,0,1,1.45-.26,2,2,0,0,1,1.17.42q1.27,1.26-.59,3.48c.44,1.17.82,2.28,1.12,3.33a21.79,21.79,0,0,1,1,7.09,31,31,0,0,0,2.11-2.48c.31-.3.58-.07.8.72a3.53,3.53,0,0,1-.18,2.66A26.22,26.22,0,0,1,322.9,58a11.34,11.34,0,0,1-7,2.31,8.72,8.72,0,0,1-6.19-2.27,7.56,7.56,0,0,1-2.51-5.49A8.23,8.23,0,0,1,308.82,47,5.93,5.93,0,0,1,313.58,44.44Zm5.33,4.38a2.82,2.82,0,0,0-3.06.16,2,2,0,0,0-.75,2.32,1.66,1.66,0,0,0,1.59,1.25c.85.09,1.73-.47,2.63-1.66q1.35-2.2.71-6.82l-.67.68-.78.78-.66.65A3.87,3.87,0,0,1,318.91,48.82Z"/></g></g></svg>
