<svg id="Made_By_Logo_Stylized_black" data-name="Made By Logo_Stylized_black" xmlns="http://www.w3.org/2000/svg" width="279.878" height="160.562" viewBox="0 0 279.878 160.562">
  <path id="Path_480" data-name="Path 480" d="M319.13,91.728l-.365.482a14.187,14.187,0,0,1-11.881,5.624,10.635,10.635,0,0,1-8.522-3.882c-.172-.207-.337-.42-.482-.62a17.209,17.209,0,0,0,2.843-1.914,20.21,20.21,0,0,0,5.41-7.379h15.329V81.286c0-5.865-1.7-10.628-5.059-14.159a17,17,0,0,0-9.444-4.88,17.546,17.546,0,0,0-4.5-8.948c-3.3-3.442-8.074-5.183-14.2-5.183A22.715,22.715,0,0,0,272.165,54.4V42.444h-3.71L257.8,44.612V28.78h-3.2l-18.757,3.793-.179.041v3.2l4.447,2.265V50.525c-1.859-1.377-4.46-2.031-7.744-2.031a21.594,21.594,0,0,0-21.538,15.784,24.009,24.009,0,0,0-7.7-2.154c-.213-4.915-1.927-8.487-5.08-10.614-3.373-2.278-8.377-3.442-14.875-3.442-5.6,0-10.181.971-13.636,2.877a9.49,9.49,0,0,0-5.273,8.742A6.594,6.594,0,0,0,165.645,64a13.643,13.643,0,0,0-8.04-2.223,13.383,13.383,0,0,0-2.01.1v-.427c0-4.343-1.108-7.7-3.29-9.96s-5.328-3.442-9.334-3.442a16.782,16.782,0,0,0-9.169,2.547,21.091,21.091,0,0,0-6.133,5.9c-1.17-5.6-5.211-8.446-12.018-8.446a17.383,17.383,0,0,0-15,8.067l.317-8.067H97.382L78.46,53.154v2.891l4.44,2.85V88.128a2.753,2.753,0,0,1-.454,1.748,2.01,2.01,0,0,1-1.2.688c-.558.11-1.425.22-2.574.33H78.46V94.84H97.472v7.51a2.409,2.409,0,0,1-.358,1.473,1.514,1.514,0,0,1-.943.558,24.619,24.619,0,0,1-2.512.324l-.606.062v4.818h26.735v-4.818l-.62-.041a5.959,5.959,0,0,1-2.753-.544c-.1-.076-.427-.42-.427-1.81V94.86h8.818v7.51c0,1.377-.324,1.735-.427,1.81a6.919,6.919,0,0,1-2.753.544l-.62.041v4.818h26.157v-4.818l-.619-.041c-2.01-.138-2.616-.427-2.753-.551s-.427-.406-.427-1.8V94.86h8.818v7.51c0,1.377-.324,1.735-.427,1.81a6.235,6.235,0,0,1-2.753.544l-.619.041v4.818h26.735v-4.818l-.606-.062A24.089,24.089,0,0,1,172,104.38a1.514,1.514,0,0,1-.943-.558,2.416,2.416,0,0,1-.351-1.473V95.06a17.965,17.965,0,0,0,5.059.22,15.422,15.422,0,0,0-.241,2.753c0,3.827,1.211,6.835,3.6,8.948a13.548,13.548,0,0,0,9.313,3.153,14.383,14.383,0,0,0,12.156-5.892c1.817,4.13,5.321,6.2,10.408,6.2a17.209,17.209,0,0,0,12.025-4.715l.289-.262-.847-3.655-.723.282a6.505,6.505,0,0,1-2.333.372c-.351,0-1.418,0-1.418-2.753V93.229a15.075,15.075,0,0,0,6.112,2.285,20.905,20.905,0,0,0,4.13,9.031,16.264,16.264,0,0,0,25.51-.53l-.2,6.443h4.034l19.273-2.939v-4.942h-2.588c-.847,0-1.377-.2-1.569-.606a7.366,7.366,0,0,1-.427-3.015V90.421a21.463,21.463,0,0,0,6.87,3.944,20.347,20.347,0,0,0,5.672,9.878c4.33,4.13,9.864,6.2,16.451,6.2,5.465,0,9.981-1.48,13.423-4.4a22.294,22.294,0,0,0,7.042-12.163l.117-.468Zm-200.678,16.52H94.4v-2.223c.895-.089,1.563-.186,2.065-.282a2.891,2.891,0,0,0,1.728-1.039,3.662,3.662,0,0,0,.64-2.306V94.86h5.658V90.882h-.207a6.5,6.5,0,0,1-3.029-.626q-.62-.441-.62-2.168V66.315l9.774-2.657v24.47c0,1.15-.206,1.872-.613,2.168a6.623,6.623,0,0,1-3.029.626h-.213v3.951h8.074v7.51c0,1.473.324,2.423.984,2.9a6.154,6.154,0,0,0,2.843.743ZM100.611,64.932V59.6a16.871,16.871,0,0,1,5.507-1.108c1.6,0,2.753.392,3.345,1.17a4.915,4.915,0,0,1,.9,2.636Zm45.155,43.324H122.286v-2.23a6.154,6.154,0,0,0,2.843-.743c.688-.475.991-1.425.991-2.9V94.86h5.83V90.882h-.207a6.5,6.5,0,0,1-3.029-.626q-.62-.441-.619-2.168V63.266a18.15,18.15,0,0,1,2.347-.151,13.088,13.088,0,0,1,7.427,1.859V88.128c0,1.15-.206,1.872-.613,2.168a6.623,6.623,0,0,1-3.029.626h-.213v3.951h7.916v7.51c0,1.473.324,2.423.991,2.9a6.2,6.2,0,0,0,2.843.743Zm-7.9-44.831a15.143,15.143,0,0,0-7.413-1.645,19.337,19.337,0,0,0-2.347.138V59.679c4.612-1.659,7.634-1.494,8.818,0a5.748,5.748,0,0,1,.957,3.634Zm47.936,1.79v1.28l-3.917,1.377a10.408,10.408,0,0,1,2.547-1.955A10.963,10.963,0,0,1,185.806,65.214Zm0,5.61v8.191l-2.416.31a5.186,5.186,0,0,1-3.731-5.362,7.021,7.021,0,0,1,3.111-1.989Zm0,9.54v5.507a8.322,8.322,0,0,1-2.21.365c-3.511,0-5.224-2.34-5.224-7.152a13.608,13.608,0,0,1,.268-2.863,6.353,6.353,0,0,0,4.474,4.426l.145.048Zm-8.763,14.724a13.767,13.767,0,0,0,9.169-6.071,9.485,9.485,0,0,0,5.755,5.947c.406,4.24,2.423,6.395,6,6.395a9.409,9.409,0,0,0,2.6-.447l.482-.145V95.136a17.03,17.03,0,0,0,7.324-4.02l.1-.089-.688-2.891-.234.1a7.193,7.193,0,0,1-2.519.4c-1.26,0-1.872-1.046-1.872-3.208V63.479a22.309,22.309,0,0,1,7.276,2.065,35.517,35.517,0,0,0-.936,8.363c0,6.835,1.6,12.225,4.743,16.018a16.864,16.864,0,0,0,2.278,2.265v7.455c0,3.4,1.494,4.13,2.753,4.13a8.823,8.823,0,0,0,2.065-.234l.337,1.432a15.915,15.915,0,0,1-10.834,4.13c-5,0-8.143-2.134-9.637-6.519l-.441-1.328-.757,1.177a13.153,13.153,0,0,1-11.757,6.333,12.266,12.266,0,0,1-8.425-2.815c-2.106-1.872-3.146-4.515-3.146-7.943A13.693,13.693,0,0,1,177.044,95.088Zm22.674,4.674a7.124,7.124,0,0,1-1.741.255c-2.671,0-4.178-1.521-4.612-4.653a16.947,16.947,0,0,0,6.353.069ZM168.742,66.033h.048l10.69-1.377-.055-.234a26.894,26.894,0,0,1-.785-6.154c0-4.192,1.239-6.229,3.8-6.229,2.272,0,3.38,1.762,3.38,5.39v6.34a18.931,18.931,0,0,0-2.037.957,10.7,10.7,0,0,0-4.13,3.9l-7.276,2.519c-.688.248-1.432.516-2.106.805a12.452,12.452,0,0,0-3.084-6.594l-.062-.062a8.005,8.005,0,0,0,1.652.737Zm4.88,42.23H149.6v-2.237a6.154,6.154,0,0,0,2.843-.743c.688-.475.991-1.425.991-2.9V94.86h6.622V90.916h-.2c-1.156-.11-2.017-.22-2.574-.33a2,2,0,0,1-1.211-.688,2.753,2.753,0,0,1-.454-1.748V63.224a19.877,19.877,0,0,1,2.01-.11c3.731,0,6.636,1.06,8.632,3.153A11.3,11.3,0,0,1,169,72.524a18.344,18.344,0,0,0-4.708,3.215,10.68,10.68,0,0,0-2.96,7.992c0,3.683,1.17,6.574,3.442,8.59a11.64,11.64,0,0,0,4.44,2.4v7.641a3.648,3.648,0,0,0,.647,2.306,2.857,2.857,0,0,0,1.721,1.039c.482.1,1.15.186,2.065.282Zm81.423-8.783V93.938l7.407-1.122v-4.13H260.3c-1.033,0-1.68-.282-1.976-.847a7.482,7.482,0,0,1-.523-3.153V45.975l10.772-2.189h2.244V55.777c-3.986,4.405-6,10.146-6,17.078s2.017,12.349,6,16.341v9.726a8.26,8.26,0,0,0,.578,3.628,2.806,2.806,0,0,0,2.753,1.328h1.246v2.457l-18.062,2.753h-2.561l.31-9.733ZM226.673,95.7c5.507,0,10.015-2.492,13.409-7.413l-.234,7.413h3.208c.041.076.076.151.11.22,1.783,3.366,4.309,5.066,7.5,5.066a12.129,12.129,0,0,0,3.717-.571l-.62.971c-3.235,5.094-7.613,7.675-13,7.675a14.4,14.4,0,0,1-11.64-5.431,19.2,19.2,0,0,1-3.731-8.019A5.942,5.942,0,0,0,226.673,95.7Zm27,3.572a11.013,11.013,0,0,1-2.994.406c-2.636,0-4.667-1.377-6.2-4.13l9.2-1.377Zm-13.56-36.3a21.621,21.621,0,0,0-10.27,6.064,20.955,20.955,0,0,0-2.327,2.939c-.076-.984-.11-2.017-.11-3.07,0-4.633.688-8.308,2.031-10.917h0c1.335-2.6,3.263-3.855,5.872-3.855,1.81,0,3.07.578,3.751,1.728a12.242,12.242,0,0,1,1.06,5.837Zm0,1.377V85.375a11.385,11.385,0,0,1-3.442.53c-2.857,0-5.128-1.542-6.759-4.577a21.263,21.263,0,0,1-2.141-7.069A19.761,19.761,0,0,1,230.837,70a20.231,20.231,0,0,1,9.272-5.637ZM293.8,79.208V79.9h10.236a14.077,14.077,0,0,1-4.13,2.753h-6.174V84h-.537a11.186,11.186,0,0,1-8.948-4.027,13.52,13.52,0,0,1-2.354-4.233,21.374,21.374,0,0,1,4.24-6.071l.241-.234.062-.062h9.224a27.857,27.857,0,0,0-1.845,9.85Zm-12.941-9.823h3.71a22.715,22.715,0,0,0-3.221,4.467A21.5,21.5,0,0,1,280.859,69.385ZM287.508,95.7a22.529,22.529,0,0,0,9.155-1.769,9.322,9.322,0,0,0,.688.881,11.922,11.922,0,0,0,9.534,4.33,15.464,15.464,0,0,0,12.562-5.665l.826.516a21.031,21.031,0,0,1-6.491,11.013c-3.1,2.657-7.413,4.082-12.555,4.082a21.75,21.75,0,0,1-15.529-5.823,18.806,18.806,0,0,1-5.066-8.439,26.55,26.55,0,0,0,6.877.874Zm4.619-30.865H280.955c.406-8.377,2.5-12.624,6.2-12.624,3.249,0,4.977,3.937,5.128,11.7v.826ZM295.183,78.6c.234-4.13.9-7.234,1.976-9.2h6.98c.874,1.941,1.377,4.984,1.377,9.045V78.6ZM307.2,63.665a15.543,15.543,0,0,1,8.26,4.378c3.111,3.276,4.688,7.73,4.688,13.244v1.432H306.672a29.914,29.914,0,0,0,.977-3.18l.034-.158-.819-.509a27.753,27.753,0,0,0-1.28-9.472H307.4V67.065a26.985,26.985,0,0,0-.2-3.414Z" transform="translate(-41.964 -28.78)" fill="#fff"/>
  <path id="Path_481" data-name="Path 481" d="M125.862,151.894c-5.507,0-8.639,4.426-9.478,5.782l-.055.09-.186,1.962h.75a7.713,7.713,0,0,1,5.72,1.817,7.577,7.577,0,0,1,2,5.665c0,5.775-1.466,11.22-8.948,21.972l-.351.406-4.13-23.2c5.755-8.948,8.2-14.772,8.2-19.549,0-5.548-3.091-8.852-8.26-8.852s-8.343,4.247-9.155,5.548l-.138,1.377h.248a8.173,8.173,0,0,1,6.112,1.955,7.883,7.883,0,0,1,2.12,5.947,24.911,24.911,0,0,1-.571,5.507l-1.143-6.429h-1.776l-10.5,2.437L93.379,138h-1.4l-15.254,3.524H76.6l-.688,1.962,4.935,2.891,1.177,5.851a10.767,10.767,0,0,0-2.877-.372,12.294,12.294,0,0,0-5.417,1.377c.055-.805.083-1.535.083-2.21,0-7.007-2.354-11.371-6.808-12.645l1.583-6.594H65.611L48.7,135.353,52.925,118H50.5l-17.208,3.607h-.145l-.482,2.409,4.6,2.423L25.44,174.547v.138c2.272,5.183,8.473,9.086,15.832,9.995L40.191,189.1l.089.207c2.643,6.078,10.711,10.49,19.184,10.49a24.091,24.091,0,0,0,7.042-1.067c1.466,2.2,4.337,3.5,7.723,3.5,7.833,0,14.758-5.28,25.469-19.439l4.275,21.428c-3.82,4.027-6.753,5.672-10.1,5.672-3.7,0-5.576-2.574-5.576-7.647v-.688H86.268c-3.827,1.156-6.305,4.178-6.305,7.7,0,5.459,4.646,7.9,9.251,7.9,8.714,0,16.376-6.457,29.268-24.656,9.086-12.886,16.031-23.369,16.031-31.319C134.528,156.712,132.249,151.894,125.862,151.894Zm-18.379,1.335,1.425,8.019c-1.328,3.8-3.772,8.164-7.682,13.725l-.95,1.329-3.717-20.65,10.373-2.423Zm-20.5,49.677c.22,6.883,3.868,8.322,6.883,8.322,3.813,0,7.1-1.838,11.309-6.346l.241-.255-4.633-23.3c.826-1.108,1.686-2.292,2.567-3.517,2.891-4.068,5-7.117,6.773-9.8l4.454,25.014,2.175-3.077c7.689-11.013,9.2-16.7,9.2-22.715a8.827,8.827,0,0,0-2.409-6.629,8.646,8.646,0,0,0-5.947-2.2v-.11c1.556-2.437,4.529-5.018,8.26-5.018,4.584,0,7.324,2.987,7.324,7.992,0,7.572-6.842,17.855-15.784,30.542C104.8,209.6,97.433,215.9,89.221,215.9c-3.937,0-7.909-2.024-7.909-6.56,0-2.925,2.01-5.369,5.259-6.388ZM71.462,187.522h0a9.594,9.594,0,0,0-2.272,1.012c3.793-6.085,6.395-14.655,6.395-21.263,0-1.487,0-5.92-3.173-6.34a35.876,35.876,0,0,0,1.2-6.106,11.419,11.419,0,0,1,5.548-1.6,9.2,9.2,0,0,1,3.18.537L86.606,174.9a34.692,34.692,0,0,1-12.459,18.489,10.745,10.745,0,0,1-1.253-5.637v-.234ZM38.374,177.61A63.733,63.733,0,0,1,48.85,153.794l-6.656,27.238a4.564,4.564,0,0,1-3.82-3.421Zm28.518-44.467-1.2,4.984a10.482,10.482,0,0,0-1.569-.117c-3.7,0-7.572,2.024-11.516,6.03l.922-3.758-4.6-2.45.234-1.177,16.52-3.511ZM54.736,171.277c-3.283,6.2-7.351,9.809-11.165,9.885l7.248-29.777c2.292-2.561,4.426-3.965,6.009-3.965,1.907,0,2.795,1.742,2.795,5.472A42.5,42.5,0,0,1,54.736,171.277ZM42.655,184.81c.633.048,1.177.069,1.686.069a24.533,24.533,0,0,0,11.227-2.8,61.42,61.42,0,0,0-2.9,9.857v.282a5.711,5.711,0,0,0,5.9,4.3c2.375,0,4.736-1.156,7.042-3.442a6.808,6.808,0,0,0-.22,1.714,7.276,7.276,0,0,0,.509,2.753,22.715,22.715,0,0,1-6.415.943c-7.84,0-15.336-3.985-17.862-9.485Zm11.392,7.241a62.287,62.287,0,0,1,3.5-11.068,34.843,34.843,0,0,0,14.455-18.757c.688,0,2.244.22,2.244,5.046,0,5.252-1.865,12.294-4.743,17.938-3.235,6.34-7.207,9.967-10.91,9.967A4.406,4.406,0,0,1,54.047,192.051Zm-10.683-34.7,4.509-18.585L52,140.956l-1.253,5.121a58.833,58.833,0,0,0-7.386,11.275Zm35.587,38.471a5.548,5.548,0,0,1-3.972-1.377,35.477,35.477,0,0,0,12.156-16.809l2.471,12.246C85.587,194.1,82.5,195.823,78.951,195.823Z" transform="translate(-25.44 -56.586)" fill="#fff"/>
</svg>
