<svg xmlns="http://www.w3.org/2000/svg" viewBox="0 0 388.2 212.4">
  <path fill="#f0b591" class="cls-1" d="M395 77.2h-17.3q.9-19.1 9.5-19.1 7.8 0 7.8 19m-30.3-14.6q-10 10-10 26.1 0 15.6 9.4 24.3t23.5 8.8q11.8 0 19.2-6.2t10-17.2l-2.6-1.6q-6.6 8.6-18.3 8.6a16.6 16.6 0 01-13.3-6q-5-6-5-16h38.8V80q0-12.5-7.1-20t-20.6-7.5a32.9 32.9 0 00-24 10m-46.1-6q-4-3.3-11.7-3.3-14.3 0-23.7 9.6t-9.4 27.3q0 15 7 23.2a22.1 22.1 0 0017.8 8.3q12.5 0 20-11.7l-.4 11.7h4.8l27.6-4.2v-5.4h-2.8c-1.6 0-2.7-.4-3.2-1.4a11.3 11.3 0 01-.7-4.8V24.5h-4.3L312 30v4.2l6.5 3.3zm-1.6 7q1.6 2.7 1.6 8.7V107a16.7 16.7 0 01-5.4.9c-4.3 0-7.7-2.3-10.2-6.9s-3.6-10.7-3.6-18.3q0-10.3 3-16t8.8-6q4.2 0 5.8 2.8m-60.5-6q-7.3-5-21.5-5-12.3 0-19.8 4.2t-7.6 12.5q0 6.9 6.4 9l15.2-2a39.7 39.7 0 01-1.2-9q0-9.5 5.9-9.5 5.2 0 5.3 8.2v13.5l-19.9 6.9a31.2 31.2 0 00-11.7 6.7q-4.2 4-4.2 11.4 0 8 5 12.4t13 4.3q11.9 0 18.2-9.7 3.4 10.2 15 10.2a24.4 24.4 0 0017-6.6l-.8-3.7a10.6 10.6 0 01-3.8.6q-3 0-3-5V74.5q0-11.9-7.4-16.9m-29 40q0-5 1.6-7.2a10.2 10.2 0 015-3.4l5-1.9v22.7a12.9 12.9 0 01-3.6.6q-8 0-8-10.8M168 114.4c-.7.4-2.2.8-4.6 1v5.1h37.4v-5.2l-3.8-.4a3.2 3.2 0 01-2-1.2 4.4 4.4 0 01-.7-2.8V72q0-9.4-4.8-14.3t-13.4-5a24 24 0 00-13.2 3.8 30.4 30.4 0 00-9.4 9.2q-2.2-13-17.4-13-14.2 0-22.3 12.7l.5-12.6h-4.9L82 60v3.8l6.5 4.2v43a4.4 4.4 0 01-.7 2.7 3.2 3.2 0 01-2 1.2l-3.8.4v5.2h37.4v-5.2c-2.4-.1-3.9-.4-4.6-1s-1-1.6-1-3.4V69a25.4 25.4 0 018.4-1.7q3.6 0 5.1 1.8a8.7 8.7 0 011.5 5.5V111c0 1.8-.4 2.9-1 3.4s-2.3.8-4.6 1v5.1h36.5v-5.1c-2.3-.2-3.9-.5-4.6-1s-1-1.6-1-3.4V69a25.3 25.3 0 018.4-1.8q3.6 0 5.1 1.8a8.7 8.7 0 011.4 5.5V111c0 1.8-.3 3-1 3.4M109.7 155.4l12.9 63.9c-6.3 6.6-10.8 8.9-16 8.9-6.4 0-9.2-4.5-9.2-12.1h-1.7c-4.9 1.4-8.6 5.2-8.6 10.3 0 7 6 10.5 12.7 10.5 12 0 22.9-8.4 42.3-35.6 13.6-19 23.4-34 23.4-45 0-6.8-3.4-12.7-11.8-12.7-6 0-10.6 4-13.1 8l-.1 1.5c6.8-.3 12.4 3.1 12.4 11.9s-2.4 16.9-13.4 32.6l-1.8 2.6-10.2-56.6h-1.7l-22.4 5.2-.8 2.4zm-35.5 1.3c3.4 0 4.5 3.3 4.5 8.3 0 16.6-11.3 41.7-24 41.7-3.6 0-6.9-1.8-7.8-5.5 4.5-22 19.3-44.5 27.4-44.5m-6.1-42.4H65l-25 5.2-.7 3.1 6.7 3.6-17.4 70.6c4 9 15.8 14.7 27.4 14.7 22.5 0 42.8-23 42.8-49.2 0-12-4.8-18.7-13.9-18.7-12 0-24 15.3-31.4 30.8z" transform="translate(-28.6 -24.5)"/>
</svg>
