<svg id="Layer_1" data-name="Layer 1" xmlns="http://www.w3.org/2000/svg" width="570.64" height="585.34" viewBox="0 0 570.64 585.34"><defs><style>.cls-1{fill:#fff;}</style></defs><title>logo</title><path class="cls-1" d="M367.44,91.29c33.33,7.26,62.52,16.91,86.77,36.51,27.59,22.39,59.43,53.31,63.17,114.55l.1,1.49c0,.46,2.5,47.38-31.5,84.17-29.54,31.86-78.59,47.93-145.85,47.93h0c-28.62,0-46.55,31-32.15,55.84L390.67,580.7a37.18,37.18,0,0,0,50.81,13.47h0A37.17,37.17,0,0,0,455,543.35l-27.59-54.07c-11.89-20.44-1.95-46.82,20.63-54q56.29-17.83,92.43-56.77c23.41-25.27,39.67-57.22,47.1-92.34a192.19,192.19,0,0,0,4.18-46.92c-2.5-67.44-41-135.54-89.09-169.91-90.67-64.66-200.67-55-200.67-55C242.37,17.3,194.59,35.94,151,65.3c-31,21.36-65,52-88.84,95.11-38.12,59.72-40.88,133.41-41,136.29v.93C21.2,440.05,97.75,517,161.94,556.36c35,21.55,70.14,34.19,96.06,41.43a37.17,37.17,0,0,0,46.82-31.4h0A37.09,37.09,0,0,0,278,526.16c-20.63-5.76-49.06-15.88-77.21-33.16C131.1,450.26,95.61,384.77,95.42,298.28c.19-4.55.57-44.43,26.49-94.87,15.42-30.1,41.18-57.72,66.26-74.63C211.94,110.43,251,91.62,304.36,87.67h0A210.55,210.55,0,0,1,367.44,91.29Z" transform="translate(-21.2 -13.86)"/></svg>